<?xml version="1.0" encoding="UTF-8" standalone="no"?>
<!-- Created with Inkscape (http://www.inkscape.org/) -->

<svg
   width="47.639294"
   height="59.382103"
   viewBox="0 0 12.604563 15.711515"
   version="1.1"
   id="svg1"
   xml:space="preserve"
   inkscape:version="1.4.2 (ebf0e940d0, 2025-05-08)"
   sodipodi:docname="TheoToysLogo.svg"
   xmlns:inkscape="http://www.inkscape.org/namespaces/inkscape"
   xmlns:sodipodi="http://sodipodi.sourceforge.net/DTD/sodipodi-0.dtd"
   xmlns="http://www.w3.org/2000/svg"
   xmlns:svg="http://www.w3.org/2000/svg"
   xmlns:rdf="http://www.w3.org/1999/02/22-rdf-syntax-ns#"
   xmlns:cc="http://creativecommons.org/ns#"
   xmlns:dc="http://purl.org/dc/elements/1.1/"><sodipodi:namedview
     id="namedview1"
     pagecolor="#ffffff"
     bordercolor="#000000"
     borderopacity="0.25"
     inkscape:showpageshadow="2"
     inkscape:pageopacity="0.0"
     inkscape:pagecheckerboard="false"
     inkscape:deskcolor="#d1d1d1"
     inkscape:document-units="mm"
     inkscape:zoom="4.1585018"
     inkscape:cx="215.22174"
     inkscape:cy="56.270265"
     inkscape:window-width="3440"
     inkscape:window-height="1371"
     inkscape:window-x="0"
     inkscape:window-y="0"
     inkscape:window-maximized="1"
     inkscape:current-layer="g226"
     showgrid="false"><inkscape:page
       x="0"
       y="0"
       width="12.604563"
       height="15.711515"
       id="page199"
       margin="0"
       bleed="0"
       inkscape:label="Under" /><inkscape:page
       x="22.700001"
       y="0"
       width="12.7"
       height="12.7"
       id="page6"
       margin="0"
       bleed="0"
       inkscape:label="Logo" /><inkscape:page
       x="45.422497"
       y="0"
       width="63.5"
       height="12.7"
       id="page213"
       margin="0"
       bleed="0"
       inkscape:label="Side"
       inkscape:export-filename="TheoToys_Logo256.png"
       inkscape:export-xdpi="512.00006"
       inkscape:export-ydpi="512.00006" /></sodipodi:namedview><defs
     id="defs1" /><g
     inkscape:groupmode="layer"
     id="g111"
     inkscape:label="Calque 3"><g
       id="g213"
       transform="matrix(1.002182,0,0,1.002182,-0.06420633,0)"><circle
         style="fill:#ffffff;fill-opacity:1;stroke:none;stroke-width:0.406;stroke-linecap:round;stroke-linejoin:round"
         id="circle1"
         cx="29.056738"
         cy="4.6188741"
         r="4.2814531"
         transform="matrix(0.99782276,0,0,0.99782276,0.06406654,0)" /><path
         style="display:inline;fill:#d8ecf1;fill-opacity:1;stroke:none;stroke-width:0.0396386;stroke-linecap:round;stroke-linejoin:round;stroke-dasharray:none;stroke-opacity:1"
         d="m 32.19067,1.4993331 c 0.775309,3.9551016 -3.122415,7.2696823 -7.125852,5.0859699 2.201188,3.0132352 5.012864,3.441435 7.236087,1.0769189 1.907966,-2.5804421 1.251437,-4.4670545 -0.110235,-6.1628888 z"
         id="path95"
         sodipodi:nodetypes="cccc" /><path
         id="ellipse95"
         style="baseline-shift:baseline;display:inline;overflow:visible;vector-effect:none;fill:#398ba4;stroke-width:0.187132;stroke-linecap:round;stroke-linejoin:round;enable-background:accumulate;stop-color:#000000"
         d="M 29.052311,1.2542712e-7 C 26.494577,1.2542712e-7 24.417142,2.079085 24.417142,4.6381664 c 0,1.7663021 0.99018,3.3030408 2.444362,4.0860889 0.08338,0.044973 0.03572,0.1698286 -0.09545,0.077653 -0.02818,-0.019822 -0.102566,-0.071 -0.320377,-0.060826 -0.707991,0.03306 -1.066939,0.3827623 -0.901079,0.9835663 0.09958,0.3607204 -1.192026,-0.024427 -1.386141,0.2509442 -0.314806,0.4465722 2.152188,1.6912522 3.110259,1.7643462 0.743864,0.05675 1.456632,-0.01996 0.768596,0.201335 -0.581282,0.186952 -1.795933,-0.05395 -1.531099,0.154436 0.276729,0.217742 1.312067,0.576639 2.543772,0.576639 2.522738,0 4.367507,-1.472196 5.164036,-2.6916308 0.334178,-0.5116084 -0.766906,-0.3050304 -1.109472,0.031525 -1.031426,1.013309 -2.055436,-0.620122 -0.858046,-1.4840042 0.75201,-0.5425501 0.923438,0.1309018 1.073114,0.056765 C 33.455646,8.5176258 33.299491,7.590134 32.520951,7.712742 33.246584,6.8939987 33.68748,5.8170941 33.68748,4.6381666 33.68748,2.0790852 31.610045,3.1255886e-7 29.052311,3.1255886e-7 Z m 0,0.39619213457288 c 2.343382,0 4.238976,1.89698574 4.238976,4.24197414 0,0.9527487 -0.358464,1.8548914 -0.841606,2.5390341 -0.990382,1.4024093 -2.395693,0.306296 -0.899628,-0.5016951 0.325257,-0.1756643 0.245853,-0.42575 -0.101635,-0.4141791 v -9.67e-5 c -0.04964,0.00155 -0.104327,0.00974 -0.163428,0.025433 -0.858015,0.2280384 -1.85227,1.7279022 -2.159862,2.089752 -1.046739,1.2313562 0.03631,-0.4596942 -1.243697,-1.4637933 -0.289866,-0.2273836 -0.568399,0.022325 -0.240694,0.3222144 0.486747,0.4454658 0.07474,1.4691169 -0.645493,1.1138252 -1.301961,-0.7233694 -2.181909,-2.1128091 -2.181909,-3.7104944 0,-2.3449884 1.895594,-4.24197414 4.238976,-4.24197424 z"
         sodipodi:nodetypes="sssccscsccsscsscsssscsscccsccsss" /><path
         id="path96"
         style="fill:#f6e4cb;fill-opacity:1;stroke:none;stroke-width:0.356748;stroke-linecap:round;stroke-linejoin:round;stroke-dasharray:none;stroke-opacity:1"
         d="m 28.110092,5.3041911 c -0.50749,-0.3261549 -1.186243,-0.4589404 -1.188023,-0.8046077 0.0077,-0.4205444 1.18945,-0.1975297 1.525654,-0.6502014 0.189433,-0.2550645 0.361457,-2.6296497 0.604652,-2.6296497 0.2432,0 0.415228,2.3745852 0.604657,2.6296497 0.336203,0.4526717 1.517932,0.229657 1.52565,0.6502014 -0.002,0.3456673 -0.680529,0.4784528 -1.188019,0.8046077 -0.458438,0.2946307 -0.774723,0.7781639 -0.942288,0.7781639 -0.167564,0 -0.483846,-0.4835332 -0.942283,-0.7781639 z"
         sodipodi:nodetypes="scscscscs" /><path
         style="fill:#d5c2a9;fill-opacity:1;stroke:none;stroke-width:0.356748;stroke-linecap:round;stroke-linejoin:round;stroke-dasharray:none;stroke-opacity:1"
         d="m 29.046917,1.3434385 c 0.03579,1.7376131 0.461342,3.3456685 -0.927597,3.4702805 0.791311,0.2690067 1.089252,0.8924163 3.063362,-0.3141409 l -1.52565,-0.6502064 z"
         id="path97"
         sodipodi:nodetypes="ccccc" /><path
         id="path98"
         style="fill:#388ea9;fill-opacity:1;stroke:none;stroke-width:0.356748;stroke-linecap:round;stroke-linejoin:round;stroke-dasharray:none;stroke-opacity:1"
         d="m 29.052311,1.0412981 c -0.08777,0 -0.148244,0.051071 -0.181222,0.090321 -0.03298,0.039249 -0.0524,0.077826 -0.07059,0.119815 -0.03639,0.083979 -0.0642,0.1838003 -0.09206,0.3022936 -0.05573,0.2369868 -0.106307,0.5440176 -0.155015,0.8578525 -0.04871,0.3138349 -0.09539,0.6340358 -0.14109,0.8877335 -0.02285,0.1268489 -0.04554,0.2371693 -0.06682,0.3187331 -0.01812,0.069457 -0.04379,0.1230527 -0.04361,0.1274546 h 9.7e-5 v 9.66e-5 9.67e-5 h 9.7e-5 9.7e-5 c -0.102495,0.1331209 -0.431513,0.2113118 -0.768499,0.2644829 -0.169631,0.026765 -0.335076,0.051118 -0.481678,0.1078238 -0.0733,0.028353 -0.144621,0.065473 -0.20472,0.127938 -0.0601,0.062465 -0.101649,0.1559027 -0.103376,0.2503641 a 0.17839181,0.17839181 0 0 0 -3.93e-4,0.00406 c 7.49e-4,0.1447316 0.07849,0.2693413 0.172518,0.3559637 0.09403,0.086622 0.207545,0.1506515 0.330435,0.2123599 0.245779,0.1234169 0.534564,0.2360798 0.767145,0.3855548 0.207578,0.1334075 0.393012,0.3176752 0.550433,0.4754887 0.07871,0.078907 0.149769,0.150883 0.221063,0.2098456 0.07129,0.058963 0.139512,0.1213622 0.267191,0.1213622 0.127678,0 0.195896,-0.0624 0.26719,-0.1213622 0.07129,-0.058963 0.142448,-0.1309389 0.22116,-0.2098456 0.157422,-0.1578135 0.342855,-0.3420812 0.550433,-0.4754887 0.23259,-0.149481 0.521395,-0.2621386 0.767145,-0.3855548 0.122875,-0.061708 0.236018,-0.1257505 0.330048,-0.2123599 0.09403,-0.086609 0.172073,-0.2109673 0.172905,-0.3556736 a 0.17839181,0.17839181 0 0 0 0,-0.00435 C 31.359445,4.4018424 31.317426,4.3084017 31.257327,4.245939 31.197227,4.1834763 31.126004,4.1463539 31.052703,4.118001 30.906101,4.0612954 30.740557,4.0369423 30.570929,4.0101772 30.234026,3.9570187 29.905104,3.8787602 29.802526,3.7456943 h 9.7e-5 l 9.7e-5,-9.67e-5 v -9.66e-5 -9.67e-5 c 1.81e-4,-0.0044 -0.0254,-0.057901 -0.04352,-0.1273579 C 29.73793,3.5364824 29.71514,3.4261624 29.69229,3.2993133 29.64659,3.0456154 29.59991,2.7254147 29.551201,2.4115798 29.502491,2.0977447 29.452011,1.7907143 29.396282,1.5537273 29.368422,1.435234 29.340512,1.3354126 29.304122,1.2514337 c -0.01819,-0.041989 -0.03752,-0.080566 -0.0705,-0.119815 -0.03298,-0.039249 -0.09355,-0.090321 -0.181318,-0.090321 z m 0,0.6126135 c 0.0497,0.2151495 0.0989,0.5076615 0.146215,0.8124987 0.04838,0.3116945 0.0955,0.6328732 0.142927,0.8961468 0.02371,0.1316369 0.04738,0.2485963 0.07272,0.3457131 0.02534,0.097117 0.04048,0.1675894 0.0998,0.2474631 0.236108,0.317902 0.663868,0.3535629 1.001456,0.4068296 0.168794,0.026633 0.320921,0.054193 0.40857,0.088096 0.04383,0.016952 0.06869,0.034752 0.07601,0.042356 0.0026,0.00266 0.0036,0.0039 0.0039,0.00474 -1.322864,0.4923114 -2.620196,0.4965644 -3.90245,0.00571 -4.4e-5,-0.00114 -8.1e-5,-0.00231 -9.6e-5,-0.00348 -1.47e-4,-5.614e-4 -3.75e-4,-0.00105 -4.87e-4,-0.00146 v -9.66e-5 c -4e-6,-4.19e-5 0,-2.432e-4 0,-2.994e-4 v -9.65e-5 c 1.55e-4,-8.234e-4 0.001,-0.00215 0.0038,-0.00503 0.0073,-0.0076 0.03218,-0.025405 0.07601,-0.042356 0.08765,-0.033903 0.240258,-0.061463 0.409054,-0.088096 0.337593,-0.053267 0.765346,-0.088926 1.001456,-0.4068297 0.05932,-0.079874 0.07436,-0.1503457 0.0997,-0.247463 0.02534,-0.097117 0.0491,-0.2140763 0.07282,-0.3457131 0.04743,-0.2632738 0.09416,-0.5844523 0.14254,-0.8961468 0.04731,-0.3048371 0.09642,-0.597349 0.146118,-0.8124987 z" /><path
         id="path101"
         style="display:inline;fill:#1f677d;fill-opacity:1;stroke:none;stroke-width:0.0396386;stroke-linecap:round;stroke-linejoin:round;stroke-dasharray:none;stroke-opacity:1"
         d="m 30.704072,8.6871609 c -0.281462,0.00768 -0.772748,0.8240403 -1.208135,1.2286215 -0.975073,0.9060726 -2.144922,1.1670216 -2.168015,0.9309906 -0.0237,-0.242213 0.593617,-0.602954 0.72431,-0.756469 0.352094,-0.4135818 0.141399,-1.1827732 0.0051,-1.1690139 -0.137082,0.013842 -0.009,0.5123742 -0.302546,0.6970674 -0.401278,0.2525101 -0.539288,-0.1822471 -0.923617,-0.2589155 -0.386501,-0.077106 -0.729047,-7.672e-4 -0.694403,0.1196242 0.04391,0.1524036 0.823974,0.00356 0.708126,0.6857978 -0.0697,0.410379 -0.68468,0.442098 -1.05963,0.419717 -0.573548,-0.03425 -1.516366,-0.6780625 -1.533625,-0.6743276 -0.002,7.673e-4 -0.0045,0.00129 -0.0065,0.00232 -0.004,0.00155 -0.0077,0.00317 -0.01145,0.0051 -0.0069,0.00317 -0.0136,0.00665 -0.01986,0.010232 -0.0057,0.00317 -0.01161,0.00662 -0.01681,0.010232 -0.0036,0.00232 -0.0069,0.00508 -0.01023,0.00776 -3.93e-4,5.239e-4 -0.0012,7.672e-4 -0.0016,0.00155 -0.0028,0.00232 -0.0053,0.00443 -0.0078,0.00675 -0.0016,0.00155 -0.0032,0.00317 -0.0047,0.00472 -0.002,0.00206 -0.004,0.00407 -0.0057,0.00613 -1.27e-4,1.445e-4 -2.81e-4,2.62e-4 -3.93e-4,5.24e-4 -0.0028,0.00317 -0.0055,0.00673 -0.008,0.010232 -0.0074,0.010464 -0.01324,0.02124 -0.0176,0.032581 -2.3e-5,5.7e-5 2e-5,1.47e-4 0,2.06e-4 -0.0016,0.0036 -0.0028,0.0075 -0.004,0.01126 -2e-5,6.5e-5 1.6e-5,1.45e-4 0,2.06e-4 -0.0067,0.02312 -0.0078,0.04801 -0.0036,0.07415 0.0028,0.01748 0.0084,0.0356 0.01597,0.05428 0.185576,0.457528 1.726713,1.256504 2.697726,1.513143 0.158531,0.0419 0.301797,0.06932 0.421558,0.07845 0.418422,0.03191 0.827014,0.0216 0.981997,0.04589 0.01736,0.0028 0.03135,0.006 0.04199,0.0096 0.0028,7.49e-4 0.005,0.0015 0.0072,0.0028 0.0024,7.49e-4 0.0042,0.0021 0.0059,0.0032 4.8e-5,2.6e-5 1.55e-4,-3.4e-5 2.06e-4,0 8.04e-4,5.61e-4 0.0016,0.0013 0.0024,0.0015 8.04e-4,5.61e-4 0.0016,0.0013 0.0024,0.0015 8.04e-4,5.61e-4 0.0012,0.0013 0.002,0.0015 0.0016,0.0015 0.0024,0.0032 0.0028,0.0047 1.19e-4,1.87e-4 1.16e-4,5.61e-4 2.06e-4,7.48e-4 2.25e-4,7.49e-4 3.37e-4,0.0013 3.93e-4,0.0021 5.6e-5,7.48e-4 6.4e-5,0.0013 0,0.0021 -6.7e-5,7.49e-4 -2.24e-4,0.0013 -3.93e-4,0.0021 -3.55e-4,0.0013 -0.0012,0.0028 -0.002,0.0043 -2.8e-5,5.1e-5 3.2e-5,1.48e-4 0,1.88e-4 -0.0012,0.0023 -0.0032,0.0045 -0.0057,0.007 -0.02501,0.02469 -0.109331,0.06018 -0.27059,0.112045 -0.290864,0.09355 -0.740062,0.08005 -1.083392,0.06924 -0.214157,-0.0068 -0.387211,-0.01244 -0.454537,0.0096 -0.0032,0.0013 -0.0066,0.0023 -0.0094,0.0036 -0.0042,0.0021 -0.0079,0.004 -0.01086,0.0061 -0.0012,7.49e-4 -0.002,0.0015 -0.0028,0.0023 -0.0016,0.0015 -0.0032,0.0032 -0.0041,0.0049 -8.05e-4,0.0013 -0.0016,0.0023 -0.002,0.004 -2e-5,5.4e-5 2.4e-5,1.49e-4 0,1.87e-4 -3.37e-4,7.48e-4 -8.04e-4,0.0015 -8.04e-4,0.0028 -9.6e-5,5.61e-4 -1.51e-4,7.48e-4 -2.06e-4,0.0015 -8e-6,6e-5 8e-6,1.44e-4 0,1.87e-4 -3.93e-4,0.0036 2.8e-4,0.0076 0.002,0.01188 1.23e-4,1.87e-4 2.81e-4,5.61e-4 3.93e-4,7.48e-4 0.0047,0.01054 0.0159,0.02294 0.03461,0.0377 0.276729,0.217749 1.312187,0.576621 2.543892,0.576621 2.522738,0 4.367451,-1.472147 5.163983,-2.6915785 7.49e-4,-0.00129 0.0011,-0.00206 0.002,-0.00317 0.114586,-0.1775199 0.05482,-0.2676974 -0.08583,-0.2955819 -0.0947,-0.00949 -1.034464,1.4368574 -2.371211,1.3152664 -1.591411,-0.144753 -0.689936,-2.1702174 -1.001456,-2.3005438 -0.01681,-0.00701 -0.03468,-0.010156 -0.05347,-0.00964 z" /><path
         style="fill:#3a8ca6;fill-opacity:1;stroke:none;stroke-width:0.0396386;stroke-linecap:round;stroke-linejoin:round;stroke-dasharray:none;stroke-opacity:1"
         d="m 33.865009,9.0795397 c -0.09358,-0.3266936 0.2984,-1.0430828 0.723449,-0.8828922 0.256225,0.096567 0.102348,0.4463075 -0.135326,0.577737 -0.203652,0.1125976 -0.464974,0.2463317 -0.588123,0.3051552 z"
         id="path102"
         sodipodi:nodetypes="cssc" /><path
         style="fill:#3a8ca6;fill-opacity:1;stroke:none;stroke-width:0.0396386;stroke-linecap:round;stroke-linejoin:round;stroke-dasharray:none;stroke-opacity:1"
         d="m 31.960536,5.0107667 c 0.09407,-0.3955932 -0.24207,-0.6864863 -0.02386,-0.9395763 0.247508,-0.2870991 0.672788,0.3941005 0.02386,0.9395763 z"
         id="path103"
         sodipodi:nodetypes="csc" /><path
         style="fill:#3a8ca6;fill-opacity:1;stroke:none;stroke-width:0.0396386;stroke-linecap:round;stroke-linejoin:round;stroke-dasharray:none;stroke-opacity:1"
         d="m 31.836859,5.8930479 c -0.109819,-0.1010292 0.299486,-0.5516851 0.59267,-0.5516851 0.293184,0 0.537378,0.2880655 0.138728,0.5170113 -0.124918,0.07174 -0.644724,0.1144198 -0.731378,0.034682 z"
         id="path104"
         sodipodi:nodetypes="sssss" /><path
         style="fill:#3a8ca6;fill-opacity:1;stroke:none;stroke-width:0.0396386;stroke-linecap:round;stroke-linejoin:round;stroke-dasharray:none;stroke-opacity:1"
         d="m 27.012386,7.0936095 c -0.163248,0.2290102 -0.530509,0.2244633 -0.608347,-0.010696 -0.07305,-0.2206484 0.105209,-0.4079167 0.24836,-0.3876232 0.29712,0.042128 0.410784,0.32707 0.359987,0.3983305 z"
         id="path105"
         sodipodi:nodetypes="ssss" /><path
         style="fill:#3a8ca6;fill-opacity:1;stroke:none;stroke-width:0.0396386;stroke-linecap:round;stroke-linejoin:round;stroke-dasharray:none;stroke-opacity:1"
         d="M 27.297103,6.3489854 C 26.863959,5.9945671 26.626277,5.8828021 26.488461,5.954877 26.251783,6.0786614 25.98153,5.6539338 26.10309,5.4128888 26.24795,5.1256403 27.05872,5.2588251 27.297103,6.3489854 Z"
         id="path106"
         sodipodi:nodetypes="cssc" /><path
         style="fill:#3a8ca6;fill-opacity:1;stroke:none;stroke-width:0.0396386;stroke-linecap:round;stroke-linejoin:round;stroke-dasharray:none;stroke-opacity:1"
         d="m 25.222552,8.6788326 c -1.132699,-0.2560542 -1.13683,-0.8402379 -0.810271,-0.9133672 0.326564,-0.073124 0.745073,0.2880501 0.810271,0.9133672 z"
         id="path107"
         sodipodi:nodetypes="csc" /><path
         style="fill:#d8ecf1;fill-opacity:1;stroke:none;stroke-width:0.0396386;stroke-linecap:round;stroke-linejoin:round;stroke-dasharray:none;stroke-opacity:1"
         d="M 26.746252,3.225261 C 26.567255,3.6889079 26.140089,3.43348 26.23492,2.9466886 c 0.186861,-0.9591924 0.686566,-1.40264 1.305885,-1.4413884 0.426394,-0.026681 0.522121,0.3458419 0.225869,0.5010746 -0.398186,0.2086478 -0.842381,0.7577342 -1.020422,1.2188862 z"
         id="path108"
         sodipodi:nodetypes="sssss" /><path
         style="fill:#3a8ca6;fill-opacity:1;stroke:none;stroke-width:0.037443;stroke-linecap:round;stroke-linejoin:round;stroke-dasharray:none;stroke-opacity:1"
         d="m 30.26003,11.208426 c 0.413243,-0.448422 0.311517,-0.558454 -0.300235,-0.196942 -0.394632,0.233206 -0.80903,0.141094 -0.907917,0.510573 -0.134167,0.501298 0.733685,0.201227 1.208152,-0.313631 z"
         id="path109"
         sodipodi:nodetypes="ssss" /></g><g
       id="g227"><circle
         style="fill:#ffffff;fill-opacity:1;stroke:none;stroke-width:0.406;stroke-linecap:round;stroke-linejoin:round"
         id="path1"
         cx="6.2695861"
         cy="4.5513897"
         r="4.2814531" /><path
         style="display:inline;fill:#d8ecf1;fill-opacity:1;stroke:none;stroke-width:0.0393407;stroke-linecap:round;stroke-linejoin:round;stroke-dasharray:none;stroke-opacity:1"
         d="M 9.4193497,1.4880658 C 10.188833,5.4134459 6.3203985,8.7031185 2.347046,6.5358161 4.5316931,9.5264077 7.3222399,9.9513898 9.5287565,7.6046422 11.422384,5.0435914 10.770789,3.1711563 9.4193497,1.4880658 Z"
         id="path199"
         sodipodi:nodetypes="cccc" /><path
         id="path200"
         style="baseline-shift:baseline;display:inline;overflow:visible;vector-effect:none;fill:#398ba4;stroke-width:0.185725;stroke-linecap:round;stroke-linejoin:round;enable-background:accumulate;stop-color:#000000"
         d="M 6.3045743,-1.79106e-7 C 3.7660614,-1.79106e-7 1.7042376,2.063461 1.7042376,4.6033116 c 0,1.7530289 0.982739,3.2782195 2.4259933,4.0553832 0.082754,0.044635 0.035452,0.1685524 -0.094728,0.077069 C 4.0075315,8.7160908 3.9337073,8.6652975 3.7175332,8.6753949 3.0148631,8.7082068 2.658612,9.0552808 2.8232259,9.6515699 2.9220618,10.00958 1.6401577,9.6273268 1.4475016,9.9006284 c -0.312441,0.4432176 2.1360141,1.6785436 3.086886,1.7510876 0.7382737,0.05632 1.4456858,-0.01981 0.7628197,0.199822 -0.5769133,0.185547 -1.7824369,-0.05355 -1.5195928,0.153276 0.2746499,0.216106 1.3022076,0.572305 2.5246568,0.572305 2.5037801,0 4.3346857,-1.461132 5.1252297,-2.6714038 C 11.759168,9.3979514 10.666358,9.6029771 10.326366,9.9370035 9.3026905,10.942698 8.2863764,9.3215413 9.4747683,8.4641509 10.221127,7.9256779 10.391266,8.594069 10.539818,8.520489 10.674819,8.453618 10.519838,7.5330961 9.7471491,7.6547827 10.467329,6.8421921 10.904911,5.7733801 10.904911,4.6033118 10.904911,2.0634612 8.8430877,0 6.3045748,0 Z m 0,0.393214869106 c 2.3257724,0 4.2071217,1.88273041 4.2071217,4.21009691 0,0.9455891 -0.355771,1.8409524 -0.835282,2.5199541 C 8.6934747,8.5151362 7.2987239,7.4272599 8.7835463,6.6253406 9.1063597,6.4509964 9.0275525,6.2027901 8.6826753,6.214274 v -9.6e-5 C 8.6334093,6.215718 8.5791324,6.223838 8.5204752,6.23942 7.6689079,6.4657445 6.6821252,7.9543373 6.3768443,8.3134679 5.3379713,9.5355708 6.4128829,7.8572282 5.142493,6.8606745 4.8548053,6.6349997 4.5783655,6.8828321 4.903608,7.1804677 5.3866973,7.6225859 4.9777868,8.6385445 4.2629661,8.2859227 2.9707889,7.5679893 2.0974526,6.1889908 2.0974526,4.6033116 c 0,-2.3273665 1.8813492,-4.21009691 4.2071217,-4.21009691 z"
         sodipodi:nodetypes="sssccscsccsscsscsssscsscccsccsss" /><path
         id="path201"
         style="fill:#f6e4cb;fill-opacity:1;stroke:none;stroke-width:0.354067;stroke-linecap:round;stroke-linejoin:round;stroke-dasharray:none;stroke-opacity:1"
         d="M 5.3694364,5.2643314 C 4.8657596,4.9406274 4.192107,4.8088398 4.1903406,4.46577 4.197972,4.048386 5.3708525,4.2697247 5.7045295,3.8204547 5.8925393,3.5673069 6.0632706,1.2105661 6.3046384,1.2105661 c 0.2413718,0 0.4121068,2.3567408 0.6001128,2.6098886 C 7.2384281,4.2697247 8.4112765,4.048386 8.4189363,4.46577 8.4169658,4.8088398 7.743521,4.9406274 7.2398444,5.2643314 6.7848523,5.556748 6.4709438,6.0366476 6.3046384,6.0366476 c -0.1663055,0 -0.48021,-0.4798996 -0.935202,-0.7723162 z"
         sodipodi:nodetypes="scscscscs" /><path
         style="fill:#d5c2a9;fill-opacity:1;stroke:none;stroke-width:0.354067;stroke-linecap:round;stroke-linejoin:round;stroke-dasharray:none;stroke-opacity:1"
         d="M 6.2992211,1.3333427 C 6.3347458,3.0578981 6.7570963,4.6538695 5.3785943,4.777545 6.1639589,5.0445302 6.4596608,5.6632551 8.4189363,4.4657648 L 6.9047512,3.8204445 Z"
         id="path202"
         sodipodi:nodetypes="ccccc" /><path
         id="path203"
         style="fill:#388ea9;fill-opacity:1;stroke:none;stroke-width:0.354067;stroke-linecap:round;stroke-linejoin:round;stroke-dasharray:none;stroke-opacity:1"
         d="m 6.3045743,1.0334727 c -0.087109,0 -0.1471297,0.050687 -0.1798598,0.089642 -0.03273,0.038954 -0.052006,0.077241 -0.070063,0.1189147 -0.036112,0.083348 -0.063714,0.182419 -0.091369,0.3000219 -0.055309,0.2352059 -0.1055077,0.5399294 -0.1538502,0.851406 -0.048342,0.3114765 -0.094669,0.6292712 -0.1400294,0.8810624 -0.02268,0.1258957 -0.0452,0.235387 -0.06632,0.3163379 -0.017984,0.068935 -0.043465,0.1221281 -0.043285,0.1264969 h 9.61e-5 v 9.58e-5 9.6e-5 h 9.6e-5 9.6e-5 C 5.4583621,3.8496667 5.131816,3.9272701 4.7973623,3.9800416 4.6290064,4.0066055 4.464804,4.0307751 4.3193043,4.0870551 4.2465543,4.1151953 4.1757698,4.1520358 4.1161224,4.2140317 4.056475,4.2760277 4.0152378,4.3687628 4.0135236,4.4625144 a 0.17705125,0.17705125 0 0 0 -3.901e-4,0.00403 c 7.43e-4,0.143644 0.077897,0.2673173 0.1712219,0.3532887 0.093325,0.085971 0.205985,0.1495194 0.3279511,0.2107641 0.2439322,0.1224895 0.5305475,0.2343057 0.76138,0.3826575 0.2060182,0.132405 0.3900587,0.315288 0.5462973,0.4719155 0.078119,0.078314 0.1486433,0.1497491 0.2194018,0.2082686 0.070758,0.05852 0.1384633,0.1204503 0.2651826,0.1204503 0.1267192,0 0.1944237,-0.061931 0.2651823,-0.1204503 0.070759,-0.05852 0.141378,-0.1299549 0.2194979,-0.2082686 C 6.9454879,5.728543 7.1295272,5.54566 7.3355456,5.413255 7.5663874,5.2648973 7.8530226,5.1530862 8.0969256,5.0305975 8.2188771,4.9693532 8.3311697,4.905792 8.4244929,4.8198334 8.5178162,4.7338748 8.5952736,4.6104515 8.5960986,4.4668326 a 0.17705125,0.17705125 0 0 0 0,-0.00432 C 8.5943713,4.3687636 8.5526682,4.2760251 8.49302,4.2140317 8.4333718,4.1520384 8.362684,4.1151949 8.289934,4.0870551 8.1444342,4.0307756 7.9801337,4.0066055 7.8117802,3.9800416 7.4774093,3.9272825 7.1509594,3.8496121 7.0491523,3.7175462 h 9.6e-5 l 9.6e-5,-9.6e-5 v -9.58e-5 -9.6e-5 C 7.0495241,3.7128901 7.0241393,3.6597925 7.006155,3.5908575 6.9850419,3.5099064 6.9624255,3.4004155 6.9397455,3.2745196 6.8943854,3.0227282 6.8480589,2.7049337 6.799716,2.3934572 6.7513732,2.0819804 6.7012722,1.7772573 6.6459619,1.5420512 6.6183066,1.4244483 6.5906096,1.3253771 6.5544965,1.2420293 6.5364403,1.2003552 6.5172604,1.162069 6.4845298,1.1231146 6.4517993,1.0841602 6.3916827,1.0334727 6.3045743,1.0334727 Z m 0,0.6080099 c 0.049325,0.2135327 0.098159,0.5038466 0.145116,0.8063931 0.048013,0.3093521 0.094781,0.6281173 0.1418531,0.8894124 0.023536,0.1306477 0.047028,0.2467282 0.072174,0.3431153 0.025146,0.096387 0.040173,0.16633 0.099047,0.2456034 0.2343344,0.3155131 0.6588796,0.350906 0.9939308,0.4037724 0.1675257,0.026433 0.3185089,0.053786 0.4054999,0.087434 0.043496,0.016825 0.068176,0.03449 0.075437,0.042038 0.00254,0.00264 0.00356,0.00387 0.00384,0.0047 -1.3129235,0.4886119 -2.6005058,0.4928328 -3.873124,0.00566 -4.35e-5,-0.00113 -8.05e-5,-0.00229 -9.61e-5,-0.00345 -1.45e-4,-5.572e-4 -3.714e-4,-0.00104 -4.829e-4,-0.00145 v -9.58e-5 c -4e-6,-4.16e-5 0,-2.414e-4 0,-2.972e-4 v -9.58e-5 c 1.536e-4,-8.172e-4 10e-4,-0.00214 0.00374,-0.00499 0.00726,-0.00754 0.031943,-0.025214 0.075437,-0.042038 C 4.5339351,4.3835464 4.685398,4.3561934 4.8529259,4.3297604 5.1879816,4.2768944 5.6125208,4.2415034 5.8468567,3.925988 5.9057327,3.846714 5.9206617,3.776772 5.9458087,3.6803846 5.9709557,3.5839976 5.9945427,3.467917 6.0180787,3.3372694 6.0651507,3.075974 6.1115357,2.7572091 6.1595478,2.4478569 6.2065038,2.1453106 6.2552438,1.8549967 6.3045681,1.6414639 Z" /><path
         id="path204"
         style="display:inline;fill:#1f677d;fill-opacity:1;stroke:none;stroke-width:0.0393407;stroke-linecap:round;stroke-linejoin:round;stroke-dasharray:none;stroke-opacity:1"
         d="M 7.9439233,8.6218792 C 7.664576,8.6295032 7.1769819,9.439727 6.7448663,9.8412679 5.7771213,10.740532 4.6160633,10.99952 4.5931433,10.765262 4.5696178,10.52487 5.1822997,10.166839 5.3120106,10.014479 5.6614592,9.6040042 5.452347,8.8405931 5.3170865,8.8542489 5.181034,8.867987 5.3081178,9.3627727 5.0168137,9.5460781 4.6185509,9.7966907 4.481578,9.3652005 4.1001372,9.2891082 3.7165407,9.2125812 3.3765689,9.2883468 3.4109528,9.4078335 3.4545307,9.5590918 4.2287345,9.4113641 4.113757,10.088478 4.0445841,10.495772 3.4342229,10.527254 3.0620901,10.505041 2.492852,10.471052 1.5571189,9.8320736 1.5399898,9.8357805 c -0.00197,7.615e-4 -0.00445,0.00128 -0.00649,0.0023 -0.00394,0.00154 -0.00763,0.00315 -0.011368,0.00506 -0.00688,0.00315 -0.013495,0.0066 -0.019709,0.010155 -0.00571,0.00315 -0.011528,0.00657 -0.01668,0.010155 -0.00354,0.0023 -0.00688,0.00504 -0.010152,0.0077 -3.901e-4,5.201e-4 -0.00117,7.615e-4 -0.00158,0.00154 -0.00275,0.0023 -0.00527,0.0044 -0.00771,0.0067 -0.00158,0.00154 -0.00315,0.00315 -0.00468,0.00468 -0.00197,0.00205 -0.00393,0.00404 -0.00571,0.00609 -1.259e-4,1.434e-4 -2.785e-4,2.6e-4 -3.9e-4,5.2e-4 -0.00275,0.00315 -0.00547,0.00668 -0.00795,0.010155 -0.00732,0.010386 -0.01314,0.02108 -0.017467,0.032336 -2.38e-5,5.63e-5 1.97e-5,1.458e-4 0,2.043e-4 -0.00158,0.00353 -0.00275,0.00739 -0.00394,0.011179 -1.97e-5,6.39e-5 1.56e-5,1.432e-4 0,2.043e-4 -0.00669,0.022947 -0.00779,0.047647 -0.00354,0.073595 0.00275,0.01734 0.00834,0.03533 0.015854,0.05387 0.1841819,0.45409 1.7137373,1.247061 2.6774537,1.501772 0.1573398,0.04159 0.2995292,0.0688 0.4183898,0.07786 0.4152777,0.03167 0.820799,0.02144 0.9746176,0.04554 0.017232,0.0028 0.031119,0.0059 0.041674,0.0096 0.00275,7.43e-4 0.00492,0.0015 0.00712,0.0028 0.00235,7.42e-4 0.00413,0.002 0.0059,0.0031 4.72e-5,2.6e-5 1.536e-4,-3.3e-5 2.043e-4,0 7.986e-4,5.57e-4 0.00158,0.0013 0.00235,0.0015 7.986e-4,5.57e-4 0.00158,0.0013 0.00235,0.0015 7.986e-4,5.57e-4 0.00117,0.0013 0.00197,0.0015 0.00158,0.0015 0.00235,0.0031 0.00275,0.0047 1.179e-4,1.86e-4 1.142e-4,5.57e-4 2.043e-4,7.43e-4 2.229e-4,7.43e-4 3.343e-4,0.0013 3.9e-4,0.002 5.5e-5,7.43e-4 6.3e-5,0.0013 0,0.002 -6.7e-5,7.43e-4 -2.228e-4,0.0013 -3.9e-4,0.002 -3.529e-4,0.0013 -0.00117,0.0028 -0.00197,0.0043 -2.77e-5,5e-5 3.13e-5,1.47e-4 0,1.86e-4 -0.00117,0.0023 -0.00315,0.0045 -0.00571,0.0069 -0.024825,0.02451 -0.10851,0.05973 -0.2685563,0.111204 -0.2886791,0.09285 -0.7345011,0.07945 -1.0752515,0.06872 -0.2125468,-0.0067 -0.384301,-0.01235 -0.4511213,0.0096 -0.00315,0.0013 -0.00653,0.0023 -0.00936,0.0035 -0.00413,0.002 -0.00783,0.0039 -0.01078,0.0061 -0.00117,7.42e-4 -0.00197,0.0015 -0.00275,0.0023 -0.00158,0.0015 -0.00315,0.0031 -0.00405,0.0049 -7.986e-4,0.0013 -0.00158,0.0023 -0.00197,0.0039 -1.97e-5,5.4e-5 2.35e-5,1.49e-4 0,1.86e-4 -3.343e-4,7.43e-4 -7.987e-4,0.0015 -7.987e-4,0.0028 -9.45e-5,5.57e-4 -1.495e-4,7.42e-4 -2.043e-4,0.0015 -7.8e-6,6e-5 8e-6,1.43e-4 0,1.86e-4 -3.9e-4,0.0035 2.786e-4,0.0075 0.00197,0.01179 1.22e-4,1.85e-4 2.786e-4,5.57e-4 3.9e-4,7.43e-4 0.00464,0.01046 0.015777,0.02277 0.034345,0.03741 0.2746499,0.216112 1.3023267,0.572287 2.5247758,0.572287 2.5037798,0 4.3346308,-1.461084 5.1251768,-2.6713522 7.43e-4,-0.00128 0.0011,-0.00205 0.002,-0.00315 0.113713,-0.1761391 0.0544,-0.265639 -0.0852,-0.2933139 C 11.25041,9.6001205 10.31771,11.035596 8.9910075,10.914919 7.411556,10.771253 8.3062567,8.7610086 7.997077,8.6316615 7.980397,8.6247015 7.962654,8.6215825 7.944014,8.6220915 Z" /><path
         style="fill:#3a8ca6;fill-opacity:1;stroke:none;stroke-width:0.0393407;stroke-linecap:round;stroke-linejoin:round;stroke-dasharray:none;stroke-opacity:1"
         d="m 11.081106,9.0113093 c -0.09287,-0.3242386 0.296158,-1.0352443 0.718013,-0.8762575 0.254299,0.095842 0.101579,0.4429536 -0.134309,0.5733955 -0.202122,0.1117514 -0.46148,0.2444805 -0.583704,0.302862 z"
         id="path205"
         sodipodi:nodetypes="cssc" /><path
         style="fill:#3a8ca6;fill-opacity:1;stroke:none;stroke-width:0.0393407;stroke-linecap:round;stroke-linejoin:round;stroke-dasharray:none;stroke-opacity:1"
         d="M 9.1909447,4.9731119 C 9.2843083,4.5804916 8.9506943,4.2917844 9.1672604,4.0405963 9.4129086,3.7556547 9.8349922,4.4317353 9.1909447,4.9731119 Z"
         id="path206"
         sodipodi:nodetypes="csc" /><path
         style="fill:#3a8ca6;fill-opacity:1;stroke:none;stroke-width:0.0393407;stroke-linecap:round;stroke-linejoin:round;stroke-dasharray:none;stroke-opacity:1"
         d="M 9.0681974,5.8487631 C 8.9592036,5.748493 9.365433,5.3012237 9.6564135,5.3012237 c 0.2909806,0 0.5333395,0.2859008 0.1376851,0.5131261 -0.1239788,0.071201 -0.6398785,0.11356 -0.7258815,0.034421 z"
         id="path207"
         sodipodi:nodetypes="sssss" /><path
         style="fill:#3a8ca6;fill-opacity:1;stroke:none;stroke-width:0.0393407;stroke-linecap:round;stroke-linejoin:round;stroke-dasharray:none;stroke-opacity:1"
         d="M 4.2799786,7.0403028 C 4.1179576,7.267592 3.7534568,7.2630793 3.6762032,7.0296868 3.603706,6.8106965 3.7806218,6.6248355 3.9226971,6.6449765 c 0.2948872,0.041812 0.407697,0.3246121 0.3572815,0.3953371 z"
         id="path208"
         sodipodi:nodetypes="ssss" /><path
         style="fill:#3a8ca6;fill-opacity:1;stroke:none;stroke-width:0.0393407;stroke-linecap:round;stroke-linejoin:round;stroke-dasharray:none;stroke-opacity:1"
         d="M 4.5625558,6.3012743 C 4.1326669,5.9495193 3.8967717,5.8385942 3.7599914,5.9101275 3.5250913,6.0329818 3.2568693,5.6114458 3.3775161,5.3722122 3.5212869,5.0871223 4.3259642,5.2193063 4.5625558,6.3012743 Z"
         id="path209"
         sodipodi:nodetypes="cssc" /><path
         style="fill:#3a8ca6;fill-opacity:1;stroke:none;stroke-width:0.0393407;stroke-linecap:round;stroke-linejoin:round;stroke-dasharray:none;stroke-opacity:1"
         d="M 2.5035949,8.6136135 C 1.3794074,8.3594834 1.3753081,7.7796896 1.6994134,7.70711 2.0235229,7.6345353 2.4388871,7.9929954 2.5035949,8.6136135 Z"
         id="path210"
         sodipodi:nodetypes="csc" /><path
         style="fill:#d8ecf1;fill-opacity:1;stroke:none;stroke-width:0.0393407;stroke-linecap:round;stroke-linejoin:round;stroke-dasharray:none;stroke-opacity:1"
         d="M 4.0158446,3.2010238 C 3.8381931,3.6611865 3.4142368,3.4076781 3.5083556,2.9245448 3.6938122,1.9725605 4.1897624,1.5324453 4.8044271,1.493988 5.2276166,1.4675076 5.3226246,1.837231 5.028599,1.9912972 4.6334049,2.198377 4.1925475,2.7433373 4.0158446,3.2010238 Z"
         id="path211"
         sodipodi:nodetypes="sssss" /><path
         style="fill:#3a8ca6;fill-opacity:1;stroke:none;stroke-width:0.0371616;stroke-linecap:round;stroke-linejoin:round;stroke-dasharray:none;stroke-opacity:1"
         d="M 7.5032182,11.124198 C 7.9133553,10.679146 7.8123938,10.56994 7.2052388,10.928736 6.8135721,11.160189 6.4022882,11.06877 6.3041445,11.435472 6.170986,11.933003 7.0323164,11.635186 7.5032182,11.124198 Z"
         id="path212"
         sodipodi:nodetypes="ssss" /><text
         xml:space="preserve"
         style="font-style:normal;font-variant:normal;font-weight:bold;font-stretch:normal;font-size:2.85235px;font-family:'Museo Sans Rounded';-inkscape-font-specification:'Museo Sans Rounded, Bold';font-variant-ligatures:normal;font-variant-caps:normal;font-variant-numeric:normal;font-variant-east-asian:normal;text-align:start;writing-mode:lr-tb;direction:ltr;text-anchor:start;fill:#3a8ca6;fill-opacity:1;stroke:none;stroke-width:0.0898378;stroke-linecap:round;stroke-linejoin:round;stroke-dasharray:none;stroke-opacity:1"
         x="-0.017110161"
         y="15.112523"
         id="text212"><tspan
           sodipodi:role="line"
           id="tspan212"
           style="font-style:normal;font-variant:normal;font-weight:bold;font-stretch:normal;font-size:2.85235px;font-family:'Museo Sans Rounded';-inkscape-font-specification:'Museo Sans Rounded, Bold';font-variant-ligatures:normal;font-variant-caps:normal;font-variant-numeric:normal;font-variant-east-asian:normal;fill:#3a8ca6;fill-opacity:1;stroke-width:0.0898378"
           x="-0.017110161"
           y="15.112523">TheoToys</tspan></text></g><g
       id="g226"
       transform="matrix(1.002182,0,0,1.002182,22.25985,-1.8289234e-4)"><circle
         style="fill:#ffffff;fill-opacity:1;stroke:none;stroke-width:0.405116;stroke-linecap:round;stroke-linejoin:round"
         id="circle2"
         cx="29.048267"
         cy="4.6090002"
         r="4.2721314" /><path
         style="display:inline;fill:#d8ecf1;fill-opacity:1;stroke:none;stroke-width:0.0396386;stroke-linecap:round;stroke-linejoin:round;stroke-dasharray:none;stroke-opacity:1"
         d="m 32.19067,1.4993331 c 0.775309,3.9551016 -3.122415,7.2696823 -7.125852,5.0859699 2.201188,3.0132352 5.012864,3.441435 7.236087,1.0769189 1.907966,-2.5804421 1.251437,-4.4670545 -0.110235,-6.1628888 z"
         id="path213"
         sodipodi:nodetypes="cccc" /><path
         id="path214"
         style="baseline-shift:baseline;display:inline;overflow:visible;vector-effect:none;fill:#398ba4;stroke-width:0.187132;stroke-linecap:round;stroke-linejoin:round;enable-background:accumulate;stop-color:#000000"
         d="M 29.052311,1.2542712e-7 C 26.494577,1.2542712e-7 24.417142,2.079085 24.417142,4.6381664 c 0,1.7663021 0.99018,3.3030408 2.444362,4.0860889 0.08338,0.044973 0.03572,0.1698286 -0.09545,0.077653 -0.02818,-0.019822 -0.102566,-0.071 -0.320377,-0.060826 -0.707991,0.03306 -1.066939,0.3827623 -0.901079,0.9835663 0.09958,0.3607204 -1.192026,-0.024427 -1.386141,0.2509442 -0.314806,0.4465722 2.152188,1.6912522 3.110259,1.7643462 0.743864,0.05675 1.456632,-0.01996 0.768596,0.201335 -0.581282,0.186952 -1.795933,-0.05395 -1.531099,0.154436 0.276729,0.217742 1.312067,0.576639 2.543772,0.576639 2.522738,0 4.367507,-1.472196 5.164036,-2.6916308 0.334178,-0.5116084 -0.766906,-0.3050304 -1.109472,0.031525 -1.031426,1.013309 -2.055436,-0.6201214 -0.858046,-1.4840036 0.75201,-0.5425501 0.923438,0.1309018 1.073114,0.056765 0.136029,-0.067378 -0.02013,-0.99487 -0.798666,-0.872262 C 33.246584,6.8939987 33.68748,5.8170941 33.68748,4.6381666 33.68748,2.0790852 31.610045,3.1255886e-7 29.052311,3.1255886e-7 Z m 0,0.39619213457288 c 2.343382,0 4.238976,1.89698574 4.238976,4.24197414 0,0.9527487 -0.358464,1.8548914 -0.841606,2.5390341 -0.990382,1.4024093 -2.395693,0.306296 -0.899628,-0.5016951 0.325257,-0.1756643 0.245853,-0.42575 -0.101635,-0.4141791 v -9.67e-5 c -0.04964,0.00155 -0.104327,0.00974 -0.163428,0.025433 -0.858015,0.2280384 -1.85227,1.7279022 -2.159862,2.089752 -1.046739,1.2313562 0.03631,-0.4596942 -1.243697,-1.4637933 -0.289866,-0.2273836 -0.568399,0.022325 -0.240694,0.3222144 0.486747,0.4454658 0.07474,1.4691169 -0.645493,1.1138252 -1.301961,-0.7233694 -2.181909,-2.1128091 -2.181909,-3.7104944 0,-2.3449884 1.895594,-4.24197414 4.238976,-4.24197424 z"
         sodipodi:nodetypes="sssccscsccsscsscsssscsscccsccsss" /><path
         id="path215"
         style="fill:#f6e4cb;fill-opacity:1;stroke:none;stroke-width:0.356748;stroke-linecap:round;stroke-linejoin:round;stroke-dasharray:none;stroke-opacity:1"
         d="m 28.110092,5.3041911 c -0.50749,-0.3261549 -1.186243,-0.4589404 -1.188023,-0.8046077 0.0077,-0.4205444 1.18945,-0.1975297 1.525654,-0.6502014 0.189433,-0.2550645 0.361457,-2.6296497 0.604652,-2.6296497 0.2432,0 0.415228,2.3745852 0.604657,2.6296497 0.336203,0.4526717 1.517932,0.229657 1.52565,0.6502014 -0.002,0.3456673 -0.680529,0.4784528 -1.188019,0.8046077 -0.458438,0.2946307 -0.774723,0.7781639 -0.942288,0.7781639 -0.167564,0 -0.483846,-0.4835332 -0.942283,-0.7781639 z"
         sodipodi:nodetypes="scscscscs" /><path
         style="fill:#d5c2a9;fill-opacity:1;stroke:none;stroke-width:0.356748;stroke-linecap:round;stroke-linejoin:round;stroke-dasharray:none;stroke-opacity:1"
         d="m 29.046917,1.3434385 c 0.03579,1.7376131 0.461342,3.3456685 -0.927597,3.4702805 0.791311,0.2690067 1.089252,0.8924163 3.063362,-0.3141409 l -1.52565,-0.6502064 z"
         id="path216"
         sodipodi:nodetypes="ccccc" /><path
         id="path217"
         style="fill:#388ea9;fill-opacity:1;stroke:none;stroke-width:0.356748;stroke-linecap:round;stroke-linejoin:round;stroke-dasharray:none;stroke-opacity:1"
         d="m 29.052311,1.0412981 c -0.08777,0 -0.148244,0.051071 -0.181222,0.090321 -0.03298,0.039249 -0.0524,0.077826 -0.07059,0.119815 -0.03639,0.083979 -0.0642,0.1838003 -0.09206,0.3022936 -0.05573,0.2369868 -0.106307,0.5440176 -0.155015,0.8578525 -0.04871,0.3138349 -0.09539,0.6340358 -0.14109,0.8877335 -0.02285,0.1268489 -0.04554,0.2371693 -0.06682,0.3187331 -0.01812,0.069457 -0.04379,0.1230527 -0.04361,0.1274546 h 9.7e-5 v 9.66e-5 9.67e-5 h 9.7e-5 9.7e-5 c -0.102495,0.1331209 -0.431513,0.2113118 -0.768499,0.2644829 -0.169631,0.026765 -0.335076,0.051118 -0.481678,0.1078238 -0.0733,0.028353 -0.144621,0.065473 -0.20472,0.127938 -0.0601,0.062465 -0.101649,0.1559027 -0.103376,0.2503641 a 0.17839181,0.17839181 0 0 0 -3.93e-4,0.00406 c 7.49e-4,0.1447316 0.07849,0.2693413 0.172518,0.3559637 0.09403,0.086622 0.207545,0.1506515 0.330435,0.2123599 0.245779,0.1234169 0.534564,0.2360798 0.767145,0.3855548 0.207578,0.1334075 0.393012,0.3176752 0.550433,0.4754887 0.07871,0.078907 0.149769,0.150883 0.221063,0.2098456 0.07129,0.058963 0.139512,0.1213622 0.267191,0.1213622 0.127678,0 0.195896,-0.0624 0.26719,-0.1213622 0.07129,-0.058963 0.142448,-0.1309389 0.22116,-0.2098456 0.157422,-0.1578135 0.342855,-0.3420812 0.550433,-0.4754887 0.23259,-0.149481 0.521395,-0.2621386 0.767145,-0.3855548 0.122875,-0.061708 0.236018,-0.1257505 0.330048,-0.2123599 0.09403,-0.086609 0.172073,-0.2109673 0.172905,-0.3556736 a 0.17839181,0.17839181 0 0 0 0,-0.00435 C 31.359445,4.4018424 31.317426,4.3084017 31.257327,4.245939 31.197227,4.1834763 31.126004,4.1463539 31.052703,4.118001 30.906101,4.0612954 30.740557,4.0369423 30.570929,4.0101772 30.234026,3.9570187 29.905104,3.8787602 29.802526,3.7456943 h 9.7e-5 l 9.7e-5,-9.67e-5 v -9.66e-5 -9.67e-5 c 1.81e-4,-0.0044 -0.0254,-0.057901 -0.04352,-0.1273579 C 29.73793,3.5364824 29.71514,3.4261624 29.69229,3.2993133 29.64659,3.0456154 29.59991,2.7254147 29.551201,2.4115798 29.502491,2.0977447 29.452011,1.7907143 29.396282,1.5537273 29.368422,1.435234 29.340512,1.3354126 29.304122,1.2514337 c -0.01819,-0.041989 -0.03752,-0.080566 -0.0705,-0.119815 -0.03298,-0.039249 -0.09355,-0.090321 -0.181318,-0.090321 z m 0,0.6126135 c 0.0497,0.2151495 0.0989,0.5076615 0.146215,0.8124987 0.04838,0.3116945 0.0955,0.6328732 0.142927,0.8961468 0.02371,0.1316369 0.04738,0.2485963 0.07272,0.3457131 0.02534,0.097117 0.04048,0.1675894 0.0998,0.2474631 0.236108,0.317902 0.663868,0.3535629 1.001456,0.4068296 0.168794,0.026633 0.320921,0.054193 0.40857,0.088096 0.04383,0.016952 0.06869,0.034752 0.07601,0.042356 0.0026,0.00266 0.0036,0.0039 0.0039,0.00474 -1.322864,0.4923114 -2.620196,0.4965644 -3.90245,0.00571 -4.4e-5,-0.00114 -8.1e-5,-0.00231 -9.6e-5,-0.00348 -1.47e-4,-5.614e-4 -3.75e-4,-0.00105 -4.87e-4,-0.00146 v -9.66e-5 c -4e-6,-4.19e-5 0,-2.432e-4 0,-2.994e-4 v -9.65e-5 c 1.55e-4,-8.234e-4 0.001,-0.00215 0.0038,-0.00503 0.0073,-0.0076 0.03218,-0.025405 0.07601,-0.042356 0.08765,-0.033903 0.240258,-0.061463 0.409054,-0.088096 0.337593,-0.053267 0.765346,-0.088926 1.001456,-0.4068297 0.05932,-0.079874 0.07436,-0.1503457 0.0997,-0.247463 0.02534,-0.097117 0.0491,-0.2140763 0.07282,-0.3457131 0.04743,-0.2632738 0.09416,-0.5844523 0.14254,-0.8961468 0.04731,-0.3048371 0.09642,-0.597349 0.146118,-0.8124987 z" /><path
         id="path218"
         style="display:inline;fill:#1f677d;fill-opacity:1;stroke:none;stroke-width:0.0396386;stroke-linecap:round;stroke-linejoin:round;stroke-dasharray:none;stroke-opacity:1"
         d="m 30.704072,8.6871609 c -0.281462,0.00768 -0.772748,0.8240403 -1.208135,1.2286215 -0.975073,0.9060726 -2.144922,1.1670216 -2.168015,0.9309906 -0.0237,-0.242213 0.593617,-0.602954 0.72431,-0.756469 0.352094,-0.4135818 0.141399,-1.1827732 0.0051,-1.1690139 -0.137082,0.013842 -0.009,0.5123742 -0.302546,0.6970674 -0.401278,0.2525101 -0.539288,-0.1822471 -0.923617,-0.2589155 -0.386501,-0.077106 -0.729047,-7.672e-4 -0.694403,0.1196242 0.04391,0.1524036 0.823974,0.00356 0.708126,0.6857978 -0.0697,0.410379 -0.68468,0.442098 -1.05963,0.419717 -0.573548,-0.03425 -1.516366,-0.6780625 -1.533625,-0.6743276 -0.002,7.673e-4 -0.0045,0.00129 -0.0065,0.00232 -0.004,0.00155 -0.0077,0.00317 -0.01145,0.0051 -0.0069,0.00317 -0.0136,0.00665 -0.01986,0.010232 -0.0057,0.00317 -0.01161,0.00662 -0.01681,0.010232 -0.0036,0.00232 -0.0069,0.00508 -0.01023,0.00776 -3.93e-4,5.239e-4 -0.0012,7.672e-4 -0.0016,0.00155 -0.0028,0.00232 -0.0053,0.00443 -0.0078,0.00675 -0.0016,0.00155 -0.0032,0.00317 -0.0047,0.00472 -0.002,0.00206 -0.004,0.00407 -0.0057,0.00613 -1.27e-4,1.445e-4 -2.81e-4,2.62e-4 -3.93e-4,5.24e-4 -0.0028,0.00317 -0.0055,0.00673 -0.008,0.010232 -0.0074,0.010464 -0.01324,0.02124 -0.0176,0.032581 -2.3e-5,5.7e-5 2e-5,1.47e-4 0,2.06e-4 -0.0016,0.0036 -0.0028,0.0075 -0.004,0.01126 -2e-5,6.5e-5 1.6e-5,1.45e-4 0,2.06e-4 -0.0067,0.02312 -0.0078,0.04801 -0.0036,0.07415 0.0028,0.01748 0.0084,0.0356 0.01597,0.05428 0.185576,0.457528 1.726713,1.256504 2.697726,1.513143 0.158531,0.0419 0.301797,0.06932 0.421558,0.07845 0.418422,0.03191 0.827014,0.0216 0.981997,0.04589 0.01736,0.0028 0.03135,0.006 0.04199,0.0096 0.0028,7.49e-4 0.005,0.0015 0.0072,0.0028 0.0024,7.49e-4 0.0042,0.0021 0.0059,0.0032 4.8e-5,2.6e-5 1.55e-4,-3.4e-5 2.06e-4,0 8.04e-4,5.61e-4 0.0016,0.0013 0.0024,0.0015 8.04e-4,5.61e-4 0.0016,0.0013 0.0024,0.0015 8.04e-4,5.61e-4 0.0012,0.0013 0.002,0.0015 0.0016,0.0015 0.0024,0.0032 0.0028,0.0047 1.19e-4,1.87e-4 1.16e-4,5.61e-4 2.06e-4,7.48e-4 2.25e-4,7.49e-4 3.37e-4,0.0013 3.93e-4,0.0021 5.6e-5,7.48e-4 6.4e-5,0.0013 0,0.0021 -6.7e-5,7.49e-4 -2.24e-4,0.0013 -3.93e-4,0.0021 -3.55e-4,0.0013 -0.0012,0.0028 -0.002,0.0043 -2.8e-5,5.1e-5 3.2e-5,1.48e-4 0,1.88e-4 -0.0012,0.0023 -0.0032,0.0045 -0.0057,0.007 -0.02501,0.02469 -0.109331,0.06018 -0.27059,0.112045 -0.290864,0.09355 -0.740062,0.08005 -1.083392,0.06924 -0.214157,-0.0068 -0.387211,-0.01244 -0.454537,0.0096 -0.0032,0.0013 -0.0066,0.0023 -0.0094,0.0036 -0.0042,0.0021 -0.0079,0.004 -0.01086,0.0061 -0.0012,7.49e-4 -0.002,0.0015 -0.0028,0.0023 -0.0016,0.0015 -0.0032,0.0032 -0.0041,0.0049 -8.05e-4,0.0013 -0.0016,0.0023 -0.002,0.004 -2e-5,5.4e-5 2.4e-5,1.49e-4 0,1.87e-4 -3.37e-4,7.48e-4 -8.04e-4,0.0015 -8.04e-4,0.0028 -9.6e-5,5.61e-4 -1.51e-4,7.48e-4 -2.06e-4,0.0015 -8e-6,6e-5 8e-6,1.44e-4 0,1.87e-4 -3.93e-4,0.0036 2.8e-4,0.0076 0.002,0.01188 1.23e-4,1.87e-4 2.81e-4,5.61e-4 3.93e-4,7.48e-4 0.0047,0.01054 0.0159,0.02294 0.03461,0.0377 0.276729,0.217749 1.312187,0.576621 2.543892,0.576621 2.522738,0 4.367451,-1.472147 5.163983,-2.6915773 7.49e-4,-0.00129 0.0011,-0.00206 0.002,-0.00317 0.114586,-0.1775199 0.05482,-0.2676974 -0.08583,-0.2955819 -0.0947,-0.00949 -1.034464,1.4368562 -2.371211,1.3152652 -1.591411,-0.144753 -0.689936,-2.1702162 -1.001456,-2.3005426 -0.01681,-0.00701 -0.03468,-0.010156 -0.05347,-0.00964 z" /><path
         style="fill:#3a8ca6;fill-opacity:1;stroke:none;stroke-width:0.0396386;stroke-linecap:round;stroke-linejoin:round;stroke-dasharray:none;stroke-opacity:1"
         d="m 33.865009,9.0795397 c -0.09358,-0.3266936 0.2984,-1.0430828 0.723449,-0.8828922 0.256225,0.096567 0.102348,0.4463075 -0.135326,0.577737 -0.203652,0.1125976 -0.464974,0.2463317 -0.588123,0.3051552 z"
         id="path219"
         sodipodi:nodetypes="cssc" /><path
         style="fill:#3a8ca6;fill-opacity:1;stroke:none;stroke-width:0.0396386;stroke-linecap:round;stroke-linejoin:round;stroke-dasharray:none;stroke-opacity:1"
         d="m 31.960536,5.0107667 c 0.09407,-0.3955932 -0.24207,-0.6864863 -0.02386,-0.9395763 0.247508,-0.2870991 0.672788,0.3941005 0.02386,0.9395763 z"
         id="path220"
         sodipodi:nodetypes="csc" /><path
         style="fill:#3a8ca6;fill-opacity:1;stroke:none;stroke-width:0.0396386;stroke-linecap:round;stroke-linejoin:round;stroke-dasharray:none;stroke-opacity:1"
         d="m 31.836859,5.8930479 c -0.109819,-0.1010292 0.299486,-0.5516851 0.59267,-0.5516851 0.293184,0 0.537378,0.2880655 0.138728,0.5170113 -0.124918,0.07174 -0.644724,0.1144198 -0.731378,0.034682 z"
         id="path221"
         sodipodi:nodetypes="sssss" /><path
         style="fill:#3a8ca6;fill-opacity:1;stroke:none;stroke-width:0.0396386;stroke-linecap:round;stroke-linejoin:round;stroke-dasharray:none;stroke-opacity:1"
         d="m 27.012386,7.0936095 c -0.163248,0.2290102 -0.530509,0.2244633 -0.608347,-0.010696 -0.07305,-0.2206484 0.105209,-0.4079167 0.24836,-0.3876232 0.29712,0.042128 0.410784,0.32707 0.359987,0.3983305 z"
         id="path222"
         sodipodi:nodetypes="ssss" /><path
         style="fill:#3a8ca6;fill-opacity:1;stroke:none;stroke-width:0.0396386;stroke-linecap:round;stroke-linejoin:round;stroke-dasharray:none;stroke-opacity:1"
         d="M 27.297103,6.3489854 C 26.863959,5.9945671 26.626277,5.8828021 26.488461,5.954877 26.251783,6.0786614 25.98153,5.6539338 26.10309,5.4128888 26.24795,5.1256403 27.05872,5.2588251 27.297103,6.3489854 Z"
         id="path223"
         sodipodi:nodetypes="cssc" /><path
         style="fill:#3a8ca6;fill-opacity:1;stroke:none;stroke-width:0.0396386;stroke-linecap:round;stroke-linejoin:round;stroke-dasharray:none;stroke-opacity:1"
         d="m 25.222552,8.6788326 c -1.132699,-0.2560542 -1.13683,-0.8402379 -0.810271,-0.9133672 0.326564,-0.073124 0.745073,0.2880501 0.810271,0.9133672 z"
         id="path224"
         sodipodi:nodetypes="csc" /><path
         style="fill:#d8ecf1;fill-opacity:1;stroke:none;stroke-width:0.0396386;stroke-linecap:round;stroke-linejoin:round;stroke-dasharray:none;stroke-opacity:1"
         d="M 26.746252,3.225261 C 26.567255,3.6889079 26.140089,3.43348 26.23492,2.9466886 c 0.186861,-0.9591924 0.686566,-1.40264 1.305885,-1.4413884 0.426394,-0.026681 0.522121,0.3458419 0.225869,0.5010746 -0.398186,0.2086478 -0.842381,0.7577342 -1.020422,1.2188862 z"
         id="path225"
         sodipodi:nodetypes="sssss" /><path
         style="fill:#3a8ca6;fill-opacity:1;stroke:none;stroke-width:0.037443;stroke-linecap:round;stroke-linejoin:round;stroke-dasharray:none;stroke-opacity:1"
         d="m 30.26003,11.208426 c 0.413243,-0.448422 0.311517,-0.558454 -0.300235,-0.196942 -0.394632,0.233206 -0.80903,0.141094 -0.907917,0.510573 -0.134167,0.501298 0.733685,0.201227 1.208152,-0.313631 z"
         id="path226"
         sodipodi:nodetypes="ssss" /><text
         xml:space="preserve"
         style="font-style:normal;font-variant:normal;font-weight:bold;font-stretch:normal;font-size:11.0276px;font-family:'Museo Sans Rounded';-inkscape-font-specification:'Museo Sans Rounded, Bold';font-variant-ligatures:normal;font-variant-caps:normal;font-variant-numeric:normal;font-variant-east-asian:normal;text-align:start;writing-mode:lr-tb;direction:ltr;text-anchor:start;fill:#3a8ca6;fill-opacity:1;stroke:none;stroke-width:0.347326;stroke-linecap:round;stroke-linejoin:round;stroke-dasharray:none;stroke-opacity:1"
         x="58.585514"
         y="10.001382"
         id="text226"
         transform="matrix(0.99782276,0,0,0.99782276,-22.211385,1.8249414e-4)"><tspan
           sodipodi:role="line"
           id="tspan226"
           style="font-style:normal;font-variant:normal;font-weight:bold;font-stretch:normal;font-size:11.0276px;font-family:'Museo Sans Rounded';-inkscape-font-specification:'Museo Sans Rounded, Bold';font-variant-ligatures:normal;font-variant-caps:normal;font-variant-numeric:normal;font-variant-east-asian:normal;fill:#3a8ca6;fill-opacity:1;stroke-width:0.347326"
           x="58.585514"
           y="10.001382">TheoToys</tspan></text></g></g><metadata
     id="metadata1"><rdf:RDF><cc:Work
         rdf:about=""><dc:rights><cc:Agent><dc:title>Copyright (c) 2025</dc:title></cc:Agent></dc:rights><dc:creator><cc:Agent><dc:title>Théo Marjan</dc:title></cc:Agent></dc:creator></cc:Work></rdf:RDF></metadata></svg>
