<?xml version="1.0" encoding="UTF-8" standalone="no"?>
<!-- Created with Inkscape (http://www.inkscape.org/) -->

<svg
   width="47.639294"
   height="59.382103"
   viewBox="0 0 12.604563 15.711515"
   version="1.1"
   id="svg1"
   xml:space="preserve"
   inkscape:version="1.4.2 (ebf0e940d0, 2025-05-08)"
   sodipodi:docname="TheoToysLogoBlack.svg"
   xmlns:inkscape="http://www.inkscape.org/namespaces/inkscape"
   xmlns:sodipodi="http://sodipodi.sourceforge.net/DTD/sodipodi-0.dtd"
   xmlns="http://www.w3.org/2000/svg"
   xmlns:svg="http://www.w3.org/2000/svg"
   xmlns:rdf="http://www.w3.org/1999/02/22-rdf-syntax-ns#"
   xmlns:cc="http://creativecommons.org/ns#"
   xmlns:dc="http://purl.org/dc/elements/1.1/"><sodipodi:namedview
     id="namedview1"
     pagecolor="#ffffff"
     bordercolor="#000000"
     borderopacity="0.25"
     inkscape:showpageshadow="2"
     inkscape:pageopacity="0.0"
     inkscape:pagecheckerboard="false"
     inkscape:deskcolor="#d1d1d1"
     inkscape:document-units="mm"
     inkscape:zoom="2.9405048"
     inkscape:cx="224.6213"
     inkscape:cy="98.622522"
     inkscape:window-width="3440"
     inkscape:window-height="1371"
     inkscape:window-x="0"
     inkscape:window-y="0"
     inkscape:window-maximized="1"
     inkscape:current-layer="layer3"
     showgrid="false"><inkscape:page
       x="0"
       y="0"
       width="12.604563"
       height="15.711515"
       id="page199"
       margin="0"
       bleed="0"
       inkscape:label="Under"
       inkscape:export-filename="TheoToys_Black_Side.png"
       inkscape:export-xdpi="192"
       inkscape:export-ydpi="192" /><inkscape:page
       x="22.700001"
       y="0"
       width="12.7"
       height="12.7"
       id="page6"
       margin="0"
       bleed="0"
       inkscape:label="Logo" /><inkscape:page
       x="45.422497"
       y="0"
       width="63.5"
       height="12.7"
       id="page213"
       margin="0"
       bleed="0"
       inkscape:label="Side"
       inkscape:export-filename="TheoToys_Black_Side.png"
       inkscape:export-xdpi="96"
       inkscape:export-ydpi="96" /></sodipodi:namedview><defs
     id="defs1" /><g
     inkscape:groupmode="layer"
     id="layer3"
     inkscape:label="Calque 4"><g
       id="g199"
       transform="matrix(0.18572545,0,0,0.18572545,-61.912838,-19.72447)"><path
         id="path185"
         style="baseline-shift:baseline;display:inline;overflow:visible;vector-effect:none;fill:#000000;stroke-linecap:round;stroke-linejoin:round;enable-background:accumulate;stop-color:#000000"
         d="m 367.30264,106.2023 c -13.66809,0 -24.76954,11.11028 -24.76954,24.78557 0,9.43882 5.29135,17.65089 13.06225,21.83536 0.44557,0.24033 0.19087,0.90753 -0.51005,0.41496 -0.15061,-0.10593 -0.5481,-0.3794 -1.71204,-0.32504 -3.78338,0.17667 -5.70154,2.04542 -4.81521,5.25601 0.53216,1.92763 -6.36999,-0.13053 -7.4073,1.341 -1.68228,2.38642 11.50092,9.03777 16.62069,9.42837 3.97508,0.30326 7.784,-0.10668 4.10725,1.0759 -3.10627,0.99904 -9.59716,-0.28833 -8.18193,0.82527 1.4788,1.16358 7.01145,3.08147 13.59348,3.08147 13.48107,0 23.33921,-7.86716 27.59573,-14.38362 1.78579,-2.73394 -4.09822,-1.63004 -5.92883,0.16846 -5.51177,5.41495 -10.9839,-3.31382 -4.58525,-7.93026 4.01861,-2.89929 4.93469,0.69952 5.73453,0.30334 0.72689,-0.36005 -0.10758,-5.31641 -4.26796,-4.66121 3.87765,-4.37522 6.23373,-10.13002 6.23373,-16.43001 0,-13.67529 -11.10146,-24.78557 -24.76955,-24.78557 z m 0,2.11719 c 12.52263,0 22.65237,10.13717 22.65237,22.66838 0,5.09133 -1.91557,9.91222 -4.4974,13.56816 -5.29243,7.49423 -12.80217,1.6368 -4.80746,-2.68097 1.73812,-0.93872 1.3138,-2.27513 -0.54312,-2.2133 v -5.2e-4 c -0.26526,0.008 -0.5575,0.052 -0.87333,0.13591 -4.58509,1.2186 -9.89821,9.23362 -11.54193,11.16728 -5.5936,6.58016 0.19404,-2.45652 -6.64611,-7.82226 -1.54899,-1.2151 -3.03742,0.1193 -1.28622,1.72186 2.60109,2.38049 0.3994,7.85071 -3.44941,5.95209 -6.95745,-3.86556 -11.65975,-11.29049 -11.65975,-19.82825 0,-12.53121 10.12972,-22.66838 22.65236,-22.66838 z m 8.82634,44.3053 5.2e-4,0.002 c 0.10036,-0.003 0.19597,0.0137 0.28577,0.0512 1.12494,0.47063 -0.70519,5.5634 0.61081,9.05681 0.051,0.1354 0.10712,0.26821 0.16795,0.39843 0.0273,0.0584 0.0533,0.11741 0.0827,0.17467 0.0924,0.18017 0.19265,0.35601 0.30696,0.52348 0.0149,0.0218 0.0333,0.0415 0.0486,0.063 0.10267,0.14499 0.2148,0.28395 0.33589,0.41755 0.0875,0.0966 0.17664,0.19213 0.27441,0.28215 0.007,0.006 0.0124,0.013 0.0191,0.0191 0.11735,0.10672 0.24503,0.20681 0.37775,0.30334 0.0304,0.0221 0.0613,0.0441 0.0925,0.0656 0.13372,0.0923 0.27269,0.18056 0.4222,0.262 0.004,0.002 0.008,0.005 0.0119,0.007 0.0168,0.009 0.0363,0.0164 0.0532,0.0253 0.19088,0.10045 0.39749,0.19013 0.61495,0.27182 0.0726,0.0272 0.14966,0.0514 0.22531,0.0765 0.17971,0.0595 0.36872,0.1122 0.56637,0.15865 0.082,0.0193 0.16236,0.0394 0.24753,0.0563 0.28184,0.056 0.57543,0.10336 0.89349,0.1323 6.02868,0.54837 10.54616,-4.8711 12.11347,-6.54534 0.37096,-0.002 0.95591,0.0113 0.75654,0.45268 -1.03464,1.80051 -2.43941,3.37351 -3.89433,4.84777 -6.41314,6.38236 -15.49343,9.99847 -24.54682,9.64489 -3.90219,-0.17247 -7.87059,-0.8084 -11.42618,-2.48874 2.83105,0.0153 5.83139,0.41427 8.4863,-0.81648 0.69394,-0.1247 0.8738,-1.19573 0.10336,-1.34721 -1.8077,-0.27471 -3.6374,-0.12927 -5.4312,-0.29921 -3.13141,-0.34413 -6.05661,-1.66303 -8.89196,-2.96364 -2.41497,-1.19885 -4.90903,-2.49705 -6.81095,-4.34909 -0.27232,-0.34811 -0.97499,-0.9478 -0.53175,-1.38441 0.20444,-0.0729 0.41165,-0.1277 0.62115,-0.16795 1.48429,0.90488 5.11761,3.06614 7.52925,3.21014 2.00351,0.11959 5.2898,-0.0503 5.66271,-2.24276 v -5.1e-4 c 0.0386,-0.22713 0.0585,-0.43686 0.062,-0.63097 10e-6,-7.2e-4 -2e-5,-0.001 0,-0.002 3.9e-4,-0.0224 -0.002,-0.0426 -0.002,-0.0646 -1.4e-4,-0.0715 -0.001,-0.1426 -0.006,-0.20981 -0.003,-0.0368 -0.008,-0.0704 -0.0119,-0.10594 -0.005,-0.0498 -0.009,-0.10045 -0.0171,-0.14779 -0.005,-0.0317 -0.0129,-0.0608 -0.0191,-0.0915 -0.0103,-0.0502 -0.0201,-0.10134 -0.0331,-0.14883 -0.006,-0.0221 -0.0141,-0.0421 -0.0207,-0.0636 -0.0153,-0.0498 -0.0303,-0.0995 -0.0486,-0.14624 -0.0139,-0.0356 -0.0305,-0.0685 -0.046,-0.10232 -0.014,-0.0306 -0.0266,-0.0623 -0.0419,-0.0915 -0.0169,-0.0324 -0.0364,-0.0622 -0.0548,-0.093 -0.87263,-1.46213 -3.36603,-1.142 -3.54604,-1.76681 -0.18514,-0.64325 1.64549,-1.05128 3.71089,-0.63924 2.05378,0.40971 2.79125,2.73326 4.93561,1.38389 1.56845,-0.98697 0.88442,-3.65083 1.61696,-3.72483 0.67907,-0.0685 1.70382,3.49997 0.31419,5.77432 -0.10077,0.16493 -0.21436,0.32289 -0.34158,0.47232 -0.6984,0.82035 -3.99723,2.74831 -3.87057,4.04265 0.007,0.0708 0.0332,0.13312 0.0775,0.18707 0.0111,0.0135 0.0234,0.0263 0.0367,0.0388 0.0133,0.0124 0.0274,0.0243 0.0429,0.0356 0.0622,0.0456 0.14174,0.0824 0.23771,0.11059 0.0478,0.014 0.0993,0.026 0.15503,0.0357 1.44908,0.25134 5.52223,-0.98526 9.42785,-4.01733 h 5.2e-4 c 0.54149,-0.4204 1.07953,-0.87503 1.60713,-1.36529 2.32663,-2.16201 4.95185,-6.52501 6.45594,-6.56601 z" /><path
         style="fill:none;fill-opacity:1;stroke:#000000;stroke-width:0.406;stroke-linecap:round;stroke-linejoin:round;stroke-dasharray:none;stroke-opacity:1"
         d="m 367.2736,113.38142 c 0.19128,9.28551 2.46534,17.87868 -4.95692,18.54459 4.22863,1.43752 5.82078,4.76892 16.37008,-1.67872 l -8.15281,-3.47459 z"
         id="path187"
         sodipodi:nodetypes="ccccc" /><path
         id="path188"
         style="fill:#000000;fill-opacity:1;stroke:none;stroke-width:1.9064;stroke-linecap:round;stroke-linejoin:round;stroke-dasharray:none;stroke-opacity:1"
         d="m 367.30243,111.76684 c -0.46903,0 -0.79219,0.27291 -0.96842,0.48265 -0.17623,0.20975 -0.28002,0.41589 -0.37724,0.64027 -0.19444,0.44877 -0.34306,0.9822 -0.49196,1.61541 -0.2978,1.26642 -0.56808,2.90714 -0.82837,4.58422 -0.26029,1.67708 -0.50973,3.38818 -0.75396,4.74389 -0.12212,0.67786 -0.24337,1.26739 -0.35709,1.70326 -0.0968,0.37116 -0.23402,0.65757 -0.23306,0.68109 h 5.2e-4 v 5.2e-4 5.2e-4 h 5.2e-4 5.1e-4 c -0.54771,0.71137 -2.30593,1.12921 -4.10672,1.41335 -0.90648,0.14303 -1.79059,0.27316 -2.574,0.57619 -0.39171,0.15151 -0.77284,0.34987 -1.09399,0.68368 -0.32116,0.3338 -0.5432,0.83311 -0.55243,1.3379 a 0.9532953,0.9532953 0 0 0 -0.002,0.0217 c 0.004,0.77342 0.41942,1.43931 0.92191,1.90221 0.50249,0.46289 1.10908,0.80506 1.76579,1.13482 1.3134,0.65951 2.85662,1.26157 4.09949,2.06033 1.10926,0.71291 2.10019,1.69761 2.94142,2.54093 0.42062,0.42167 0.80034,0.8063 1.18132,1.12138 0.38099,0.31509 0.74553,0.64854 1.42782,0.64854 0.6823,0 1.04684,-0.33345 1.42782,-0.64854 0.38099,-0.31508 0.76122,-0.69971 1.18184,-1.12138 0.84124,-0.84332 1.83216,-1.82802 2.94142,-2.54093 1.24292,-0.7988 2.78625,-1.40082 4.0995,-2.06033 0.65662,-0.32976 1.26123,-0.67199 1.76371,-1.13482 0.50248,-0.46283 0.91954,-1.12737 0.92398,-1.90066 a 0.9532953,0.9532953 0 0 0 0,-0.0232 c -0.009,-0.50478 -0.23384,-1.00411 -0.55501,-1.3379 -0.32116,-0.33379 -0.70176,-0.53217 -1.09347,-0.68368 -0.78341,-0.30303 -1.66806,-0.43316 -2.57452,-0.57619 -1.80035,-0.28407 -3.55805,-0.70227 -4.10621,-1.41335 h 5.2e-4 l 5.1e-4,-5.2e-4 v -5.2e-4 -5.1e-4 c 9.7e-4,-0.0235 -0.13571,-0.30942 -0.23254,-0.68058 -0.11368,-0.43587 -0.23545,-1.0254 -0.35757,-1.70326 -0.24423,-1.35572 -0.49367,-3.06681 -0.75396,-4.74389 -0.26029,-1.67708 -0.53005,-3.3178 -0.82785,-4.58422 -0.14891,-0.63321 -0.29804,-1.16664 -0.49248,-1.61541 -0.0972,-0.22438 -0.20049,-0.43052 -0.37672,-0.64027 -0.17623,-0.20974 -0.49992,-0.48265 -0.96893,-0.48265 z m 0,3.2737 c 0.26558,1.14972 0.52851,2.71285 0.78134,4.34185 0.25852,1.66564 0.51033,3.38197 0.76378,4.78886 0.12673,0.70344 0.25321,1.32845 0.38861,1.84743 0.13539,0.51898 0.2163,0.89557 0.5333,1.3224 1.26172,1.69881 3.5476,1.88938 5.35161,2.17403 0.90201,0.14232 1.71494,0.2896 2.18333,0.47077 0.23419,0.0906 0.36708,0.1857 0.40618,0.22634 0.0137,0.0142 0.0192,0.0209 0.0207,0.0253 -7.06917,2.63083 -14.00188,2.65356 -20.85403,0.0305 -2.3e-4,-0.006 -4.3e-4,-0.0123 -5.2e-4,-0.0186 -7.8e-4,-0.003 -0.002,-0.006 -0.003,-0.008 v -5.2e-4 c -2e-5,-2.2e-4 0,-0.001 0,-0.002 v -5.1e-4 c 8.3e-4,-0.004 0.005,-0.0115 0.0202,-0.0269 0.0391,-0.0406 0.17199,-0.13576 0.40618,-0.22634 0.46838,-0.18117 1.2839,-0.32845 2.18591,-0.47078 1.80404,-0.28464 4.08988,-0.4752 5.35162,-2.17402 0.317,-0.42684 0.39738,-0.80343 0.53278,-1.3224 0.1354,-0.51898 0.2624,-1.14399 0.38912,-1.84744 0.25346,-1.40689 0.5032,-3.12321 0.76171,-4.78885 0.25283,-1.629 0.51526,-3.19213 0.78084,-4.34185 z" /><path
         style="fill:#000000;fill-opacity:1;stroke:none;stroke-width:0.211822;stroke-linecap:round;stroke-linejoin:round;stroke-dasharray:none;stroke-opacity:1"
         d="m 393.02066,154.72182 c -0.50005,-1.74579 1.5946,-5.57405 3.86599,-4.71802 1.36922,0.51604 0.54693,2.38499 -0.72316,3.08733 -1.08828,0.6017 -2.48474,1.31635 -3.14283,1.63069 z"
         id="path190"
         sodipodi:nodetypes="cssc" /><path
         style="fill:#000000;fill-opacity:1;stroke:none;stroke-width:0.211822;stroke-linecap:round;stroke-linejoin:round;stroke-dasharray:none;stroke-opacity:1"
         d="m 382.84348,132.979 c 0.5027,-2.11399 -1.29358,-3.66847 -0.12752,-5.02094 1.32264,-1.53421 3.59526,2.10601 0.12752,5.02094 z"
         id="path191"
         sodipodi:nodetypes="csc" /><path
         style="fill:#000000;fill-opacity:1;stroke:none;stroke-width:0.211822;stroke-linecap:round;stroke-linejoin:round;stroke-dasharray:none;stroke-opacity:1"
         d="m 382.18257,137.69376 c -0.58685,-0.53989 1.60041,-2.94811 3.16713,-2.94811 1.56672,0 2.87166,1.53937 0.74134,2.76281 -0.66754,0.38337 -3.44529,0.61145 -3.90836,0.18534 z"
         id="path192"
         sodipodi:nodetypes="sssss" /><path
         style="fill:#000000;fill-opacity:1;stroke:none;stroke-width:0.211822;stroke-linecap:round;stroke-linejoin:round;stroke-dasharray:none;stroke-opacity:1"
         d="m 356.40141,144.10935 c -0.87236,1.22379 -2.83494,1.1995 -3.2509,-0.0572 -0.39034,-1.17911 0.56222,-2.17984 1.3272,-2.07139 1.58776,0.22513 2.19516,1.74781 1.9237,2.12861 z"
         id="path193"
         sodipodi:nodetypes="ssss" /><path
         style="fill:#000000;fill-opacity:1;stroke:none;stroke-width:0.211822;stroke-linecap:round;stroke-linejoin:round;stroke-dasharray:none;stroke-opacity:1"
         d="m 357.92289,140.13021 c -2.31464,-1.89395 -3.58477,-2.49121 -4.32124,-2.10605 -1.26477,0.66148 -2.70895,-1.60819 -2.05936,-2.89629 0.77411,-1.53501 5.10672,-0.82329 6.3806,5.00234 z"
         id="path194"
         sodipodi:nodetypes="cssc" /><path
         style="fill:#000000;fill-opacity:1;stroke:none;stroke-width:0.211822;stroke-linecap:round;stroke-linejoin:round;stroke-dasharray:none;stroke-opacity:1"
         d="m 346.83685,152.58051 c -6.05295,-1.36831 -6.07502,-4.49009 -4.32995,-4.88088 1.7451,-0.39076 3.98154,1.53929 4.32995,4.88088 z"
         id="path195"
         sodipodi:nodetypes="csc" /><path
         style="fill:#000000;fill-opacity:1;stroke:none;stroke-width:0.211822;stroke-linecap:round;stroke-linejoin:round;stroke-dasharray:none;stroke-opacity:1"
         d="m 354.97924,123.43756 c -0.95653,2.47765 -3.23923,1.11269 -2.73247,-1.48864 0.99855,-5.12576 3.66889,-7.49547 6.97843,-7.70254 2.27857,-0.14258 2.79012,1.84812 1.207,2.67766 -2.12784,1.11498 -4.50154,4.0492 -5.45296,6.51352 z"
         id="path196"
         sodipodi:nodetypes="sssss" /><path
         style="fill:#000000;fill-opacity:1;stroke:none;stroke-width:0.200089;stroke-linecap:round;stroke-linejoin:round;stroke-dasharray:none;stroke-opacity:1"
         d="m 373.75627,166.09823 c 2.2083,-2.39629 1.66469,-2.98429 -1.60441,-1.05243 -2.10884,1.24622 -4.32331,0.75399 -4.85175,2.72842 -0.71696,2.67885 3.92069,1.07532 6.45616,-1.67599 z"
         id="path197"
         sodipodi:nodetypes="ssss" /><text
         xml:space="preserve"
         style="font-style:normal;font-variant:normal;font-weight:bold;font-stretch:normal;font-size:15.3579px;font-family:'Museo Sans Rounded';-inkscape-font-specification:'Museo Sans Rounded, Bold';font-variant-ligatures:normal;font-variant-caps:normal;font-variant-numeric:normal;font-variant-east-asian:normal;text-align:start;writing-mode:lr-tb;direction:ltr;text-anchor:start;fill:#000000;fill-opacity:1;stroke:none;stroke-width:0.483713;stroke-linecap:round;stroke-linejoin:round;stroke-dasharray:none;stroke-opacity:1"
         x="333.26465"
         y="187.57253"
         id="text197"><tspan
           sodipodi:role="line"
           id="tspan197"
           style="font-style:normal;font-variant:normal;font-weight:bold;font-stretch:normal;font-size:15.3579px;font-family:'Museo Sans Rounded';-inkscape-font-specification:'Museo Sans Rounded, Bold';font-variant-ligatures:normal;font-variant-caps:normal;font-variant-numeric:normal;font-variant-east-asian:normal;fill:#000000;fill-opacity:1;stroke-width:0.483713"
           x="333.26465"
           y="187.57253">TheoToys</tspan></text></g><g
       id="g265"
       transform="matrix(1.0097707,0,0,1.0097707,1.7300132,-13.855854)"><path
         id="path255"
         style="baseline-shift:baseline;display:inline;overflow:visible;vector-effect:none;fill:#000000;stroke-width:0.185725;stroke-linecap:round;stroke-linejoin:round;enable-background:accumulate;stop-color:#000000"
         d="m 26.684827,13.72178 c -2.538512,0 -4.600334,2.063461 -4.600334,4.603311 0,1.753029 0.982738,3.278219 2.425992,4.055382 0.08275,0.04464 0.03545,0.168551 -0.09473,0.07707 -0.02797,-0.01967 -0.101796,-0.07046 -0.317969,-0.06037 -0.70267,0.03281 -1.058921,0.379887 -0.894307,0.976175 0.09884,0.35801 -1.18307,-0.02424 -1.375724,0.249058 -0.312443,0.443219 2.136013,1.678544 3.086885,1.751088 0.738273,0.05632 1.445687,-0.01981 0.762821,0.199822 -0.576914,0.185547 -1.782437,-0.05355 -1.519593,0.153274 0.274651,0.216106 1.302205,0.572307 2.524655,0.572307 2.503778,0 4.334685,-1.461132 5.125229,-2.671404 0.331667,-0.507762 -0.761143,-0.30274 -1.101134,0.03129 -1.023676,1.005694 -2.03999,-0.61546 -0.851598,-1.472851 0.746358,-0.538472 0.916498,0.129919 1.065048,0.05634 0.135002,-0.06687 -0.01998,-0.987393 -0.792668,-0.865705 0.720178,-0.81259 1.157762,-1.881403 1.157762,-3.051471 0,-2.53985 -2.061824,-4.603311 -4.600336,-4.603311 z m 0,0.393216 c 2.325771,0 4.207122,1.88273 4.207122,4.210095 0,0.945589 -0.35577,1.840951 -0.835282,2.519952 -0.982939,1.39187 -2.377689,0.303996 -0.892868,-0.497924 0.322814,-0.174344 0.244006,-0.422549 -0.100871,-0.411066 v -9.7e-5 c -0.04926,0.0015 -0.103542,0.0097 -0.162199,0.02524 -0.851568,0.226325 -1.83835,1.714919 -2.143631,2.074048 -1.038873,1.222104 0.03604,-0.456238 -1.234351,-1.452792 -0.287687,-0.225675 -0.564127,0.02216 -0.238884,0.319793 0.483088,0.442117 0.07418,1.458077 -0.640643,1.105454 -1.292176,-0.717932 -2.165513,-2.096931 -2.165513,-3.68261 0,-2.327365 1.881347,-4.210095 4.20712,-4.210095 z m 1.639276,8.228622 9.7e-5,3.71e-4 c 0.01864,-5.57e-4 0.0364,0.0025 0.05307,0.0095 0.20893,0.08741 -0.130971,1.033265 0.113443,1.68208 0.0095,0.02515 0.01989,0.04981 0.03119,0.074 0.0051,0.01085 0.0099,0.02181 0.01536,0.03244 0.01716,0.03346 0.03578,0.06612 0.05701,0.09722 0.0028,0.004 0.0062,0.0077 0.009,0.0117 0.01907,0.02693 0.03989,0.05274 0.06238,0.07755 0.01625,0.01794 0.03281,0.03568 0.05096,0.0524 0.0013,0.0011 0.0023,0.0024 0.0035,0.0035 0.02179,0.01982 0.04551,0.03841 0.07016,0.05634 0.0056,0.0041 0.01139,0.0082 0.01718,0.01218 0.02484,0.01714 0.05065,0.03353 0.07841,0.04866 7.43e-4,3.71e-4 0.0015,9.28e-4 0.0022,0.0013 0.0031,0.0017 0.0067,0.003 0.0099,0.0047 0.03545,0.01866 0.07382,0.03531 0.114212,0.05048 0.01348,0.0051 0.0278,0.0095 0.04185,0.01421 0.03338,0.01105 0.06848,0.02084 0.105189,0.02947 0.01523,0.0036 0.03015,0.0073 0.04597,0.01046 0.05234,0.0104 0.106872,0.0192 0.165943,0.02457 1.11968,0.101846 1.958691,-0.904687 2.24978,-1.215636 0.0689,-3.72e-4 0.177537,0.0021 0.140509,0.08407 -0.192159,0.3344 -0.453061,0.626546 -0.723276,0.900354 -1.191084,1.185367 -2.877525,1.85697 -4.55897,1.791302 -0.724736,-0.03203 -1.461768,-0.150141 -2.122132,-0.462223 0.525798,0.0028 1.083038,0.07694 1.576122,-0.151641 0.128882,-0.02316 0.162287,-0.222077 0.0192,-0.250211 -0.335736,-0.05102 -0.675558,-0.02401 -1.008713,-0.05557 -0.581582,-0.06391 -1.124866,-0.308867 -1.651463,-0.550423 -0.448521,-0.222657 -0.911732,-0.463766 -1.264967,-0.807737 -0.05058,-0.06465 -0.18108,-0.176031 -0.09876,-0.25712 0.03797,-0.01354 0.07645,-0.02372 0.115363,-0.03119 0.275671,0.168059 0.950471,0.56946 1.398374,0.596205 0.372102,0.02221 0.98245,-0.0093 1.051709,-0.416538 v -9.4e-5 c 0.0072,-0.04218 0.01086,-0.08114 0.01151,-0.117188 2e-6,-1.33e-4 -4e-6,-1.85e-4 0,-3.71e-4 7.2e-5,-0.0042 -3.71e-4,-0.0079 -3.71e-4,-0.012 -2.6e-5,-0.01328 -1.86e-4,-0.02648 -0.0011,-0.03897 -5.57e-4,-0.0068 -0.0015,-0.01308 -0.0022,-0.01968 -9.29e-4,-0.0092 -0.0017,-0.01866 -0.0032,-0.02745 -9.29e-4,-0.0059 -0.0024,-0.01129 -0.0035,-0.01699 -0.0019,-0.0093 -0.0037,-0.01882 -0.0061,-0.02764 -0.0011,-0.0041 -0.0026,-0.0078 -0.0038,-0.01181 -0.0028,-0.0092 -0.0056,-0.01848 -0.009,-0.02716 -0.0026,-0.0066 -0.0057,-0.01272 -0.0085,-0.019 -0.0026,-0.0057 -0.0049,-0.01157 -0.0078,-0.01699 -0.0031,-0.006 -0.0068,-0.01155 -0.01018,-0.01727 -0.162069,-0.271555 -0.625157,-0.212098 -0.658589,-0.328142 -0.03439,-0.119467 0.305609,-0.195249 0.689206,-0.118723 0.38144,0.07609 0.518406,0.507636 0.916669,0.257024 0.291301,-0.183306 0.164259,-0.678052 0.30031,-0.691796 0.126121,-0.01272 0.316443,0.650034 0.05835,1.072438 -0.01872,0.03063 -0.03981,0.05997 -0.06344,0.08772 -0.12971,0.15236 -0.742387,0.510431 -0.718863,0.750823 0.0013,0.01315 0.0062,0.02472 0.01439,0.03474 0.0021,0.0025 0.0043,0.0049 0.0068,0.0072 0.0025,0.0023 0.0051,0.0045 0.008,0.0066 0.01155,0.0085 0.02632,0.0153 0.04415,0.02054 0.0089,0.0026 0.01844,0.0048 0.02879,0.0066 0.269131,0.04668 1.025619,-0.182988 1.750992,-0.746121 h 9.6e-5 c 0.100569,-0.07808 0.200497,-0.162515 0.298485,-0.253569 0.432115,-0.40154 0.919685,-1.21186 1.199033,-1.219475 z" /><path
         style="fill:none;fill-opacity:1;stroke:#000000;stroke-width:0.0754045;stroke-linecap:round;stroke-linejoin:round;stroke-dasharray:none;stroke-opacity:1"
         d="m 26.679434,15.055125 c 0.03552,1.724555 0.457876,3.320526 -0.920627,3.444202 0.785365,0.266984 1.081067,0.88571 3.040341,-0.311781 l -1.514184,-0.64532 z"
         id="path256"
         sodipodi:nodetypes="ccccc" /><path
         id="path257"
         style="fill:#000000;fill-opacity:1;stroke:none;stroke-width:0.354067;stroke-linecap:round;stroke-linejoin:round;stroke-dasharray:none;stroke-opacity:1"
         d="m 26.684788,14.755256 c -0.08711,0 -0.14713,0.05069 -0.17986,0.08964 -0.03273,0.03896 -0.05201,0.07724 -0.07006,0.118914 -0.03611,0.08335 -0.06371,0.18242 -0.09137,0.300023 -0.05531,0.235206 -0.105507,0.53993 -0.153849,0.851406 -0.04834,0.311477 -0.09467,0.629272 -0.14003,0.881061 -0.02268,0.125896 -0.0452,0.235387 -0.06632,0.316339 -0.01798,0.06893 -0.04346,0.122128 -0.04329,0.126496 h 9.7e-5 v 9.6e-5 9.7e-5 h 9.7e-5 9.4e-5 c -0.101723,0.132119 -0.42827,0.209723 -0.762722,0.262495 -0.168356,0.02656 -0.332558,0.05073 -0.478057,0.107013 -0.07275,0.02814 -0.143536,0.06498 -0.203182,0.126977 -0.05965,0.06199 -0.100886,0.15473 -0.1026,0.248482 a 0.1770512,0.1770512 0 0 0 -3.72e-4,0.004 c 7.43e-4,0.143644 0.0779,0.267317 0.171222,0.353289 0.09333,0.08597 0.205985,0.14952 0.327952,0.210765 0.243932,0.122488 0.530547,0.234306 0.76138,0.382656 0.206018,0.132405 0.390059,0.315289 0.546297,0.471915 0.07812,0.07831 0.148643,0.149751 0.219401,0.208269 0.07076,0.05852 0.138464,0.12045 0.265182,0.12045 0.126721,0 0.194425,-0.06193 0.265183,-0.12045 0.07076,-0.05852 0.141378,-0.129954 0.219498,-0.208269 0.156239,-0.156626 0.340278,-0.33951 0.546296,-0.471915 0.230842,-0.148358 0.517478,-0.260168 0.761382,-0.382656 0.121951,-0.06124 0.234242,-0.124806 0.327565,-0.210765 0.09332,-0.08596 0.170782,-0.209381 0.171607,-0.353001 a 0.1770512,0.1770512 0 0 0 0,-0.0043 c -0.0017,-0.09375 -0.04343,-0.186488 -0.103079,-0.248482 -0.05965,-0.06199 -0.130335,-0.09884 -0.203086,-0.126977 -0.145499,-0.05628 -0.309801,-0.08045 -0.478154,-0.107013 -0.33437,-0.05276 -0.66082,-0.130429 -0.762627,-0.262495 h 9.6e-5 l 9.5e-5,-9.6e-5 v -9.7e-5 -9.5e-5 c 1.8e-4,-0.0044 -0.0252,-0.05747 -0.04319,-0.126401 -0.02111,-0.08095 -0.04373,-0.190443 -0.06641,-0.316338 -0.04536,-0.251792 -0.09169,-0.569585 -0.14003,-0.881061 -0.04834,-0.311477 -0.09844,-0.6162 -0.153753,-0.851407 -0.02766,-0.117603 -0.05535,-0.216675 -0.09147,-0.300023 -0.01805,-0.04167 -0.03724,-0.07996 -0.06997,-0.118914 -0.03273,-0.03895 -0.09285,-0.08964 -0.179955,-0.08964 z m 0,0.60801 c 0.04932,0.213532 0.09816,0.503845 0.145115,0.806392 0.04801,0.309352 0.09478,0.628118 0.141853,0.889413 0.02354,0.130647 0.04703,0.246727 0.07218,0.343115 0.02514,0.09639 0.04017,0.16633 0.09905,0.245603 0.234334,0.315512 0.65888,0.350906 0.993931,0.403773 0.167526,0.02643 0.318508,0.05379 0.405499,0.08743 0.0435,0.01683 0.06818,0.03449 0.07544,0.04204 0.0025,0.0026 0.0036,0.0039 0.0038,0.0047 -1.312925,0.488612 -2.600506,0.492833 -3.873124,0.0057 -4.3e-5,-0.0011 -8e-5,-0.0023 -9.7e-5,-0.0035 -1.45e-4,-5.57e-4 -3.71e-4,-0.0011 -5.57e-4,-0.0015 v -9.7e-5 c -4e-6,-4e-5 0,-1.85e-4 0,-3.71e-4 v -9.5e-5 c 1.54e-4,-7.43e-4 9.29e-4,-0.0021 0.0038,-0.005 0.0073,-0.0075 0.03194,-0.02521 0.07544,-0.04204 0.08699,-0.03365 0.238453,-0.061 0.405979,-0.08744 0.335056,-0.05287 0.759595,-0.08826 0.993932,-0.40377 0.05888,-0.07928 0.0738,-0.149218 0.09895,-0.245604 0.02515,-0.09639 0.04873,-0.212468 0.07227,-0.343116 0.04707,-0.261296 0.09346,-0.58006 0.141469,-0.889412 0.04696,-0.302547 0.0957,-0.59286 0.145022,-0.806392 z" /><path
         style="fill:#000000;fill-opacity:1;stroke:none;stroke-width:0.0393407;stroke-linecap:round;stroke-linejoin:round;stroke-dasharray:none;stroke-opacity:1"
         d="m 31.461318,22.733089 c -0.09287,-0.324237 0.296158,-1.035243 0.718013,-0.876256 0.254299,0.09584 0.101578,0.442953 -0.13431,0.573396 -0.202121,0.111751 -0.461479,0.244479 -0.583703,0.30286 z"
         id="path258"
         sodipodi:nodetypes="cssc" /><path
         style="fill:#000000;fill-opacity:1;stroke:none;stroke-width:0.0393407;stroke-linecap:round;stroke-linejoin:round;stroke-dasharray:none;stroke-opacity:1"
         d="m 29.571157,18.694894 c 0.09336,-0.392621 -0.240251,-0.681328 -0.02368,-0.932516 0.245648,-0.284942 0.667731,0.39114 0.02368,0.932516 z"
         id="path259"
         sodipodi:nodetypes="csc" /><path
         style="fill:#000000;fill-opacity:1;stroke:none;stroke-width:0.0393407;stroke-linecap:round;stroke-linejoin:round;stroke-dasharray:none;stroke-opacity:1"
         d="m 29.448409,19.570545 c -0.108993,-0.100271 0.297237,-0.547539 0.588216,-0.547539 0.29098,0 0.533341,0.2859 0.137686,0.513124 -0.123979,0.0712 -0.639878,0.113562 -0.725882,0.03442 z"
         id="path260"
         sodipodi:nodetypes="sssss" /><path
         style="fill:#000000;fill-opacity:1;stroke:none;stroke-width:0.0393407;stroke-linecap:round;stroke-linejoin:round;stroke-dasharray:none;stroke-opacity:1"
         d="m 24.660191,20.762084 c -0.162019,0.227289 -0.52652,0.222777 -0.603775,-0.01062 -0.0725,-0.218991 0.104419,-0.404852 0.246495,-0.38471 0.294888,0.04181 0.407697,0.324613 0.35728,0.395337 z"
         id="path261"
         sodipodi:nodetypes="ssss" /><path
         style="fill:#000000;fill-opacity:1;stroke:none;stroke-width:0.0393407;stroke-linecap:round;stroke-linejoin:round;stroke-dasharray:none;stroke-opacity:1"
         d="m 24.942769,20.023056 c -0.429888,-0.351755 -0.665783,-0.462681 -0.802564,-0.391147 -0.2349,0.122854 -0.503121,-0.298682 -0.382476,-0.537915 0.143772,-0.28509 0.948448,-0.152906 1.18504,0.929062 z"
         id="path262"
         sodipodi:nodetypes="cssc" /><path
         style="fill:#000000;fill-opacity:1;stroke:none;stroke-width:0.0393407;stroke-linecap:round;stroke-linejoin:round;stroke-dasharray:none;stroke-opacity:1"
         d="m 22.883809,22.335394 c -1.124187,-0.25413 -1.128286,-0.833924 -0.804182,-0.906504 0.32411,-0.07257 0.739473,0.285885 0.804182,0.906504 z"
         id="path263"
         sodipodi:nodetypes="csc" /><path
         style="fill:#000000;fill-opacity:1;stroke:none;stroke-width:0.0393407;stroke-linecap:round;stroke-linejoin:round;stroke-dasharray:none;stroke-opacity:1"
         d="m 24.396058,16.922806 c -0.177652,0.460163 -0.601607,0.206655 -0.507489,-0.276478 0.185456,-0.951984 0.681406,-1.3921 1.296072,-1.430558 0.423188,-0.02648 0.518196,0.343243 0.224171,0.49731 -0.395195,0.20708 -0.836051,0.752039 -1.012754,1.209726 z"
         id="path264"
         sodipodi:nodetypes="sssss" /><path
         style="fill:#000000;fill-opacity:1;stroke:none;stroke-width:0.0371616;stroke-linecap:round;stroke-linejoin:round;stroke-dasharray:none;stroke-opacity:1"
         d="m 27.88343,24.845978 c 0.410138,-0.445052 0.309176,-0.554258 -0.297979,-0.195463 -0.391666,0.231455 -0.802949,0.140035 -0.901094,0.506737 -0.133158,0.497531 0.728172,0.199714 1.199073,-0.311274 z"
         id="path265"
         sodipodi:nodetypes="ssss" /></g><g
       id="g276"
       transform="matrix(1.0097707,0,0,1.0097707,24.426365,-13.856023)"><path
         id="path266"
         style="baseline-shift:baseline;display:inline;overflow:visible;vector-effect:none;fill:#000000;stroke-width:0.185725;stroke-linecap:round;stroke-linejoin:round;enable-background:accumulate;stop-color:#000000"
         d="m 26.684827,13.72178 c -2.538512,0 -4.600334,2.063461 -4.600334,4.603311 0,1.753029 0.982738,3.278219 2.425992,4.055382 0.08275,0.04464 0.03545,0.168551 -0.09473,0.07707 -0.02797,-0.01967 -0.101796,-0.07046 -0.317969,-0.06037 -0.70267,0.03281 -1.058921,0.379887 -0.894307,0.976175 0.09884,0.35801 -1.18307,-0.02424 -1.375724,0.249058 -0.312443,0.443219 2.136013,1.678544 3.086885,1.751088 0.738273,0.05632 1.445687,-0.01981 0.762821,0.199822 -0.576914,0.185547 -1.782437,-0.05355 -1.519593,0.153274 0.274651,0.216106 1.302205,0.572307 2.524655,0.572307 2.503778,0 4.334685,-1.461132 5.125229,-2.671404 0.331667,-0.507762 -0.761143,-0.30274 -1.101134,0.03129 -1.023676,1.005694 -2.03999,-0.61546 -0.851598,-1.472851 0.746358,-0.538472 0.916498,0.129919 1.065048,0.05634 0.135002,-0.06687 -0.01998,-0.987393 -0.792668,-0.865705 0.720178,-0.81259 1.157762,-1.881403 1.157762,-3.051471 0,-2.53985 -2.061824,-4.603311 -4.600336,-4.603311 z m 0,0.393216 c 2.325771,0 4.207122,1.88273 4.207122,4.210095 0,0.945589 -0.35577,1.840951 -0.835282,2.519952 -0.982939,1.39187 -2.377689,0.303996 -0.892868,-0.497924 0.322814,-0.174344 0.244006,-0.422549 -0.100871,-0.411066 v -9.7e-5 c -0.04926,0.0015 -0.103542,0.0097 -0.162199,0.02524 -0.851568,0.226325 -1.83835,1.714919 -2.143631,2.074048 -1.038873,1.222104 0.03604,-0.456238 -1.234351,-1.452792 -0.287687,-0.225675 -0.564127,0.02216 -0.238884,0.319793 0.483088,0.442117 0.07418,1.458077 -0.640643,1.105454 -1.292176,-0.717932 -2.165513,-2.096931 -2.165513,-3.68261 0,-2.327365 1.881347,-4.210095 4.20712,-4.210095 z m 1.639276,8.228622 9.7e-5,3.71e-4 c 0.01864,-5.57e-4 0.0364,0.0025 0.05307,0.0095 0.20893,0.08741 -0.130971,1.033265 0.113443,1.68208 0.0095,0.02515 0.01989,0.04981 0.03119,0.074 0.0051,0.01085 0.0099,0.02181 0.01536,0.03244 0.01716,0.03346 0.03578,0.06612 0.05701,0.09722 0.0028,0.004 0.0062,0.0077 0.009,0.0117 0.01907,0.02693 0.03989,0.05274 0.06238,0.07755 0.01625,0.01794 0.03281,0.03568 0.05096,0.0524 0.0013,0.0011 0.0023,0.0024 0.0035,0.0035 0.02179,0.01982 0.04551,0.03841 0.07016,0.05634 0.0056,0.0041 0.01139,0.0082 0.01718,0.01218 0.02484,0.01714 0.05065,0.03353 0.07841,0.04866 7.43e-4,3.71e-4 0.0015,9.28e-4 0.0022,0.0013 0.0031,0.0017 0.0067,0.003 0.0099,0.0047 0.03545,0.01866 0.07382,0.03531 0.114212,0.05048 0.01348,0.0051 0.0278,0.0095 0.04185,0.01421 0.03338,0.01105 0.06848,0.02084 0.105189,0.02947 0.01523,0.0036 0.03015,0.0073 0.04597,0.01046 0.05234,0.0104 0.106872,0.0192 0.165943,0.02457 1.11968,0.101846 1.958691,-0.904687 2.24978,-1.215636 0.0689,-3.72e-4 0.177537,0.0021 0.140509,0.08407 -0.192159,0.3344 -0.453061,0.626546 -0.723276,0.900354 -1.191084,1.185367 -2.877525,1.85697 -4.55897,1.791302 -0.724736,-0.03203 -1.461768,-0.150141 -2.122132,-0.462223 0.525798,0.0028 1.083038,0.07694 1.576122,-0.151641 0.128882,-0.02316 0.162287,-0.222077 0.0192,-0.250211 -0.335736,-0.05102 -0.675558,-0.02401 -1.008713,-0.05557 -0.581582,-0.06391 -1.124866,-0.308867 -1.651463,-0.550423 -0.448521,-0.222657 -0.911732,-0.463766 -1.264967,-0.807737 -0.05058,-0.06465 -0.18108,-0.176031 -0.09876,-0.25712 0.03797,-0.01354 0.07645,-0.02372 0.115363,-0.03119 0.275671,0.168059 0.950471,0.56946 1.398374,0.596205 0.372102,0.02221 0.98245,-0.0093 1.051709,-0.416538 v -9.4e-5 c 0.0072,-0.04218 0.01086,-0.08114 0.01151,-0.117188 2e-6,-1.33e-4 -4e-6,-1.85e-4 0,-3.71e-4 7.2e-5,-0.0042 -3.71e-4,-0.0079 -3.71e-4,-0.012 -2.6e-5,-0.01328 -1.86e-4,-0.02648 -0.0011,-0.03897 -5.57e-4,-0.0068 -0.0015,-0.01308 -0.0022,-0.01968 -9.29e-4,-0.0092 -0.0017,-0.01866 -0.0032,-0.02745 -9.29e-4,-0.0059 -0.0024,-0.01129 -0.0035,-0.01699 -0.0019,-0.0093 -0.0037,-0.01882 -0.0061,-0.02764 -0.0011,-0.0041 -0.0026,-0.0078 -0.0038,-0.01181 -0.0028,-0.0092 -0.0056,-0.01848 -0.009,-0.02716 -0.0026,-0.0066 -0.0057,-0.01272 -0.0085,-0.019 -0.0026,-0.0057 -0.0049,-0.01157 -0.0078,-0.01699 -0.0031,-0.006 -0.0068,-0.01155 -0.01018,-0.01727 -0.162069,-0.271555 -0.625157,-0.212098 -0.658589,-0.328142 -0.03439,-0.119467 0.305609,-0.195249 0.689206,-0.118723 0.38144,0.07609 0.518406,0.507636 0.916669,0.257024 0.291301,-0.183306 0.164259,-0.678052 0.30031,-0.691796 0.126121,-0.01272 0.316443,0.650034 0.05835,1.072438 -0.01872,0.03063 -0.03981,0.05997 -0.06344,0.08772 -0.12971,0.15236 -0.742387,0.510431 -0.718863,0.750823 0.0013,0.01315 0.0062,0.02472 0.01439,0.03474 0.0021,0.0025 0.0043,0.0049 0.0068,0.0072 0.0025,0.0023 0.0051,0.0045 0.008,0.0066 0.01155,0.0085 0.02632,0.0153 0.04415,0.02054 0.0089,0.0026 0.01844,0.0048 0.02879,0.0066 0.269131,0.04668 1.025619,-0.182988 1.750992,-0.746121 h 9.6e-5 c 0.100569,-0.07808 0.200497,-0.162515 0.298485,-0.253569 0.432115,-0.40154 0.919685,-1.21186 1.199033,-1.219475 z" /><path
         style="fill:none;fill-opacity:1;stroke:#000000;stroke-width:0.0754045;stroke-linecap:round;stroke-linejoin:round;stroke-dasharray:none;stroke-opacity:1"
         d="m 26.679434,15.055125 c 0.03552,1.724555 0.457876,3.320526 -0.920627,3.444202 0.785365,0.266984 1.081067,0.88571 3.040341,-0.311781 l -1.514184,-0.64532 z"
         id="path267"
         sodipodi:nodetypes="ccccc" /><path
         id="path268"
         style="fill:#000000;fill-opacity:1;stroke:none;stroke-width:0.354067;stroke-linecap:round;stroke-linejoin:round;stroke-dasharray:none;stroke-opacity:1"
         d="m 26.684788,14.755256 c -0.08711,0 -0.14713,0.05069 -0.17986,0.08964 -0.03273,0.03896 -0.05201,0.07724 -0.07006,0.118914 -0.03611,0.08335 -0.06371,0.18242 -0.09137,0.300023 -0.05531,0.235206 -0.105507,0.53993 -0.153849,0.851406 -0.04834,0.311477 -0.09467,0.629272 -0.14003,0.881061 -0.02268,0.125896 -0.0452,0.235387 -0.06632,0.316339 -0.01798,0.06893 -0.04346,0.122128 -0.04329,0.126496 h 9.7e-5 v 9.6e-5 9.7e-5 h 9.7e-5 9.4e-5 c -0.101723,0.132119 -0.42827,0.209723 -0.762722,0.262495 -0.168356,0.02656 -0.332558,0.05073 -0.478057,0.107013 -0.07275,0.02814 -0.143536,0.06498 -0.203182,0.126977 -0.05965,0.06199 -0.100886,0.15473 -0.1026,0.248482 a 0.1770512,0.1770512 0 0 0 -3.72e-4,0.004 c 7.43e-4,0.143644 0.0779,0.267317 0.171222,0.353289 0.09333,0.08597 0.205985,0.14952 0.327952,0.210765 0.243932,0.122488 0.530547,0.234306 0.76138,0.382656 0.206018,0.132405 0.390059,0.315289 0.546297,0.471915 0.07812,0.07831 0.148643,0.149751 0.219401,0.208269 0.07076,0.05852 0.138464,0.12045 0.265182,0.12045 0.126721,0 0.194425,-0.06193 0.265183,-0.12045 0.07076,-0.05852 0.141378,-0.129954 0.219498,-0.208269 0.156239,-0.156626 0.340278,-0.33951 0.546296,-0.471915 0.230842,-0.148358 0.517478,-0.260168 0.761382,-0.382656 0.121951,-0.06124 0.234242,-0.124806 0.327565,-0.210765 0.09332,-0.08596 0.170782,-0.209381 0.171607,-0.353001 a 0.1770512,0.1770512 0 0 0 0,-0.0043 c -0.0017,-0.09375 -0.04343,-0.186488 -0.103079,-0.248482 -0.05965,-0.06199 -0.130335,-0.09884 -0.203086,-0.126977 -0.145499,-0.05628 -0.309801,-0.08045 -0.478154,-0.107013 -0.33437,-0.05276 -0.66082,-0.130429 -0.762627,-0.262495 h 9.6e-5 l 9.5e-5,-9.6e-5 v -9.7e-5 -9.5e-5 c 1.8e-4,-0.0044 -0.0252,-0.05747 -0.04319,-0.126401 -0.02111,-0.08095 -0.04373,-0.190443 -0.06641,-0.316338 -0.04536,-0.251792 -0.09169,-0.569585 -0.14003,-0.881061 -0.04834,-0.311477 -0.09844,-0.6162 -0.153753,-0.851407 -0.02766,-0.117603 -0.05535,-0.216675 -0.09147,-0.300023 -0.01805,-0.04167 -0.03724,-0.07996 -0.06997,-0.118914 -0.03273,-0.03895 -0.09285,-0.08964 -0.179955,-0.08964 z m 0,0.60801 c 0.04932,0.213532 0.09816,0.503845 0.145115,0.806392 0.04801,0.309352 0.09478,0.628118 0.141853,0.889413 0.02354,0.130647 0.04703,0.246727 0.07218,0.343115 0.02514,0.09639 0.04017,0.16633 0.09905,0.245603 0.234334,0.315512 0.65888,0.350906 0.993931,0.403773 0.167526,0.02643 0.318508,0.05379 0.405499,0.08743 0.0435,0.01683 0.06818,0.03449 0.07544,0.04204 0.0025,0.0026 0.0036,0.0039 0.0038,0.0047 -1.312925,0.488612 -2.600506,0.492833 -3.873124,0.0057 -4.3e-5,-0.0011 -8e-5,-0.0023 -9.7e-5,-0.0035 -1.45e-4,-5.57e-4 -3.71e-4,-0.0011 -5.57e-4,-0.0015 v -9.7e-5 c -4e-6,-4e-5 0,-1.85e-4 0,-3.71e-4 v -9.5e-5 c 1.54e-4,-7.43e-4 9.29e-4,-0.0021 0.0038,-0.005 0.0073,-0.0075 0.03194,-0.02521 0.07544,-0.04204 0.08699,-0.03365 0.238453,-0.061 0.405979,-0.08744 0.335056,-0.05287 0.759595,-0.08826 0.993932,-0.40377 0.05888,-0.07928 0.0738,-0.149218 0.09895,-0.245604 0.02515,-0.09639 0.04873,-0.212468 0.07227,-0.343116 0.04707,-0.261296 0.09346,-0.58006 0.141469,-0.889412 0.04696,-0.302547 0.0957,-0.59286 0.145022,-0.806392 z" /><path
         style="fill:#000000;fill-opacity:1;stroke:none;stroke-width:0.0393407;stroke-linecap:round;stroke-linejoin:round;stroke-dasharray:none;stroke-opacity:1"
         d="m 31.461318,22.733089 c -0.09287,-0.324237 0.296158,-1.035243 0.718013,-0.876256 0.254299,0.09584 0.101578,0.442953 -0.13431,0.573396 -0.202121,0.111751 -0.461479,0.244479 -0.583703,0.30286 z"
         id="path269"
         sodipodi:nodetypes="cssc" /><path
         style="fill:#000000;fill-opacity:1;stroke:none;stroke-width:0.0393407;stroke-linecap:round;stroke-linejoin:round;stroke-dasharray:none;stroke-opacity:1"
         d="m 29.571157,18.694894 c 0.09336,-0.392621 -0.240251,-0.681328 -0.02368,-0.932516 0.245648,-0.284942 0.667731,0.39114 0.02368,0.932516 z"
         id="path270"
         sodipodi:nodetypes="csc" /><path
         style="fill:#000000;fill-opacity:1;stroke:none;stroke-width:0.0393407;stroke-linecap:round;stroke-linejoin:round;stroke-dasharray:none;stroke-opacity:1"
         d="m 29.448409,19.570545 c -0.108993,-0.100271 0.297237,-0.547539 0.588216,-0.547539 0.29098,0 0.533341,0.2859 0.137686,0.513124 -0.123979,0.0712 -0.639878,0.113562 -0.725882,0.03442 z"
         id="path271"
         sodipodi:nodetypes="sssss" /><path
         style="fill:#000000;fill-opacity:1;stroke:none;stroke-width:0.0393407;stroke-linecap:round;stroke-linejoin:round;stroke-dasharray:none;stroke-opacity:1"
         d="m 24.660191,20.762084 c -0.162019,0.227289 -0.52652,0.222777 -0.603775,-0.01062 -0.0725,-0.218991 0.104419,-0.404852 0.246495,-0.38471 0.294888,0.04181 0.407697,0.324613 0.35728,0.395337 z"
         id="path272"
         sodipodi:nodetypes="ssss" /><path
         style="fill:#000000;fill-opacity:1;stroke:none;stroke-width:0.0393407;stroke-linecap:round;stroke-linejoin:round;stroke-dasharray:none;stroke-opacity:1"
         d="m 24.942769,20.023056 c -0.429888,-0.351755 -0.665783,-0.462681 -0.802564,-0.391147 -0.2349,0.122854 -0.503121,-0.298682 -0.382476,-0.537915 0.143772,-0.28509 0.948448,-0.152906 1.18504,0.929062 z"
         id="path273"
         sodipodi:nodetypes="cssc" /><path
         style="fill:#000000;fill-opacity:1;stroke:none;stroke-width:0.0393407;stroke-linecap:round;stroke-linejoin:round;stroke-dasharray:none;stroke-opacity:1"
         d="m 22.883809,22.335394 c -1.124187,-0.25413 -1.128286,-0.833924 -0.804182,-0.906504 0.32411,-0.07257 0.739473,0.285885 0.804182,0.906504 z"
         id="path274"
         sodipodi:nodetypes="csc" /><path
         style="fill:#000000;fill-opacity:1;stroke:none;stroke-width:0.0393407;stroke-linecap:round;stroke-linejoin:round;stroke-dasharray:none;stroke-opacity:1"
         d="m 24.396058,16.922806 c -0.177652,0.460163 -0.601607,0.206655 -0.507489,-0.276478 0.185456,-0.951984 0.681406,-1.3921 1.296072,-1.430558 0.423188,-0.02648 0.518196,0.343243 0.224171,0.49731 -0.395195,0.20708 -0.836051,0.752039 -1.012754,1.209726 z"
         id="path275"
         sodipodi:nodetypes="sssss" /><path
         style="fill:#000000;fill-opacity:1;stroke:none;stroke-width:0.0371616;stroke-linecap:round;stroke-linejoin:round;stroke-dasharray:none;stroke-opacity:1"
         d="m 27.88343,24.845978 c 0.410138,-0.445052 0.309176,-0.554258 -0.297979,-0.195463 -0.391666,0.231455 -0.802949,0.140035 -0.901094,0.506737 -0.133158,0.497531 0.728172,0.199714 1.199073,-0.311274 z"
         id="path276"
         sodipodi:nodetypes="ssss" /><text
         xml:space="preserve"
         style="font-style:normal;font-variant:normal;font-weight:bold;font-stretch:normal;font-size:11.0276px;font-family:'Museo Sans Rounded';-inkscape-font-specification:'Museo Sans Rounded, Bold';font-variant-ligatures:normal;font-variant-caps:normal;font-variant-numeric:normal;font-variant-east-asian:normal;text-align:start;writing-mode:lr-tb;direction:ltr;text-anchor:start;fill:#000000;fill-opacity:1;stroke:none;stroke-width:0.347326;stroke-linecap:round;stroke-linejoin:round;stroke-dasharray:none;stroke-opacity:1"
         x="58.585514"
         y="10.001382"
         id="text226"
         transform="matrix(0.99032385,0,0,0.99032385,-24.190011,13.72195)"><tspan
           sodipodi:role="line"
           id="tspan226"
           style="font-style:normal;font-variant:normal;font-weight:bold;font-stretch:normal;font-size:11.0276px;font-family:'Museo Sans Rounded';-inkscape-font-specification:'Museo Sans Rounded, Bold';font-variant-ligatures:normal;font-variant-caps:normal;font-variant-numeric:normal;font-variant-east-asian:normal;fill:#000000;fill-opacity:1;stroke-width:0.347326"
           x="58.585514"
           y="10.001382">TheoToys</tspan></text></g></g><metadata
     id="metadata1"><rdf:RDF><cc:Work
         rdf:about=""><dc:rights><cc:Agent><dc:title>Copyright (c) 2025</dc:title></cc:Agent></dc:rights><dc:creator><cc:Agent><dc:title>Théo Marjan</dc:title></cc:Agent></dc:creator></cc:Work></rdf:RDF></metadata></svg>
