<?xml version="1.0" encoding="UTF-8" standalone="no"?>
<!-- Created with Inkscape (http://www.inkscape.org/) -->

<svg
   width="47.639294"
   height="59.382103"
   viewBox="0 0 12.604563 15.711515"
   version="1.1"
   id="svg1"
   xml:space="preserve"
   inkscape:version="1.4.2 (ebf0e940d0, 2025-05-08)"
   sodipodi:docname="TheoToysLogoGray.svg"
   xmlns:inkscape="http://www.inkscape.org/namespaces/inkscape"
   xmlns:sodipodi="http://sodipodi.sourceforge.net/DTD/sodipodi-0.dtd"
   xmlns="http://www.w3.org/2000/svg"
   xmlns:svg="http://www.w3.org/2000/svg"
   xmlns:rdf="http://www.w3.org/1999/02/22-rdf-syntax-ns#"
   xmlns:cc="http://creativecommons.org/ns#"
   xmlns:dc="http://purl.org/dc/elements/1.1/"><sodipodi:namedview
     id="namedview1"
     pagecolor="#ffffff"
     bordercolor="#000000"
     borderopacity="0.25"
     inkscape:showpageshadow="2"
     inkscape:pageopacity="0.0"
     inkscape:pagecheckerboard="false"
     inkscape:deskcolor="#d1d1d1"
     inkscape:document-units="mm"
     inkscape:zoom="2.0792509"
     inkscape:cx="243.59735"
     inkscape:cy="25.489949"
     inkscape:window-width="3440"
     inkscape:window-height="1371"
     inkscape:window-x="0"
     inkscape:window-y="0"
     inkscape:window-maximized="1"
     inkscape:current-layer="g254"
     showgrid="false"><inkscape:page
       x="0"
       y="0"
       width="12.604563"
       height="15.711515"
       id="page199"
       margin="0"
       bleed="0"
       inkscape:label="Under" /><inkscape:page
       x="22.700001"
       y="0"
       width="12.7"
       height="12.7"
       id="page6"
       margin="0"
       bleed="0"
       inkscape:label="Logo" /><inkscape:page
       x="45.422497"
       y="0"
       width="63.5"
       height="12.7"
       id="page213"
       margin="0"
       bleed="0"
       inkscape:label="Side"
       inkscape:export-filename="TheoToys_Gray_Logo.png"
       inkscape:export-xdpi="192"
       inkscape:export-ydpi="192" /></sodipodi:namedview><defs
     id="defs1" /><g
     inkscape:groupmode="layer"
     id="layer3"
     inkscape:label="Calque 4"><g
       id="g198"
       transform="matrix(0.1857255,0,0,0.1857255,-46.204162,-19.724479)"><circle
         style="fill:#ffffff;stroke:none;stroke-width:0.406;stroke-linecap:round;stroke-linejoin:round;fill-opacity:1"
         id="path1"
         cx="6.3023129"
         cy="4.6081743"
         r="4.2814531"
         transform="matrix(5.3842903,0,0,5.3842903,248.77662,106.20232)" /><path
         style="display:inline;fill:#e4e4e4;fill-opacity:1;stroke:none;stroke-width:0.211822;stroke-linecap:round;stroke-linejoin:round;stroke-dasharray:none;stroke-opacity:1"
         d="m 299.49313,114.2145 c 4.14312,21.13538 -16.68565,38.84793 -38.07934,27.17855 11.76278,16.10221 26.78789,18.39044 38.66842,5.75487 10.19584,-13.78944 6.68746,-23.87118 -0.58908,-32.93342 z"
         id="path170"
         sodipodi:nodetypes="cccc" /><path
         id="path171"
         style="baseline-shift:baseline;display:inline;overflow:visible;vector-effect:none;fill:#313131;fill-opacity:1;stroke-linecap:round;stroke-linejoin:round;enable-background:accumulate;stop-color:#000000"
         d="m 282.72228,106.20232 c -13.66809,0 -24.76955,11.11027 -24.76955,24.78556 0,9.43882 5.29135,17.65089 13.06225,21.83536 0.44557,0.24033 0.19088,0.90754 -0.51004,0.41497 -0.15061,-0.10593 -0.5481,-0.37941 -1.71204,-0.32505 -3.78338,0.17667 -5.70154,2.04542 -4.81521,5.25601 0.53216,1.92763 -6.36999,-0.13053 -7.4073,1.341 -1.68228,2.38642 11.50092,9.03777 16.62069,9.42837 3.97508,0.30326 7.78399,-0.10668 4.10724,1.0759 -3.10627,0.99904 -9.59716,-0.28832 -8.18193,0.82528 1.4788,1.16358 7.01146,3.08146 13.59349,3.08146 13.48108,0 23.3392,-7.86716 27.59572,-14.38362 1.78579,-2.73394 -4.09822,-1.63003 -5.92883,0.16847 -5.51177,5.41495 -10.9839,-3.31383 -4.58525,-7.93027 4.01861,-2.89929 4.93469,0.69952 5.73454,0.30334 0.72688,-0.36005 -0.10758,-5.31641 -4.26796,-4.66121 3.87765,-4.37522 6.23373,-10.13002 6.23373,-16.43001 0,-13.67529 -11.10146,-24.78556 -24.76955,-24.78556 z m 0,2.11718 c 12.52263,0 22.65236,10.13717 22.65236,22.66838 0,5.09133 -1.91557,9.91223 -4.4974,13.56817 -5.29243,7.49423 -12.80217,1.63679 -4.80746,-2.68098 1.73812,-0.93872 1.3138,-2.27513 -0.54312,-2.2133 v -5.1e-4 c -0.26526,0.008 -0.5575,0.052 -0.87333,0.1359 -4.58509,1.2186 -9.89821,9.23362 -11.54193,11.16728 -5.5936,6.58016 0.19404,-2.45652 -6.64611,-7.82226 -1.54899,-1.2151 -3.03742,0.1193 -1.28622,1.72186 2.60109,2.38049 0.3994,7.85071 -3.44941,5.95209 -6.95745,-3.86556 -11.65975,-11.29049 -11.65975,-19.82825 0,-12.53121 10.12973,-22.66838 22.65237,-22.66838 z"
         sodipodi:nodetypes="sssccscsccsscsscsssscsscccsccsss" /><path
         id="path172"
         style="fill:#000000;fill-opacity:0;stroke:none;stroke-width:1.9064;stroke-linecap:round;stroke-linejoin:round;stroke-dasharray:none;stroke-opacity:1"
         d="m 277.68722,134.54701 c -2.71194,-1.74292 -6.33908,-2.4525 -6.34859,-4.29969 0.0411,-2.24732 6.35622,-1.05557 8.15283,-3.47456 1.0123,-1.36303 1.93157,-14.0524 3.23116,-14.0524 1.29962,0 2.2189,12.68937 3.23118,14.0524 1.79662,2.41899 8.11157,1.22724 8.15282,3.47456 -0.0106,1.84719 -3.63664,2.55677 -6.34858,4.29969 -2.44981,1.57445 -4.13998,4.15837 -5.03542,4.15837 -0.89544,0 -2.58559,-2.58392 -5.0354,-4.15837 z"
         sodipodi:nodetypes="scscscscs" /><path
         style="fill:#d7d7d7;fill-opacity:1;stroke:none;stroke-width:1.9064;stroke-linecap:round;stroke-linejoin:round;stroke-dasharray:none;stroke-opacity:1"
         d="m 282.69345,113.38142 c 0.19128,9.28551 2.46534,17.87868 -4.95692,18.54459 4.22863,1.43752 5.82078,4.76892 16.37009,-1.67872 l -8.15282,-3.47459 z"
         id="path173"
         sodipodi:nodetypes="ccccc" /><path
         id="path174"
         style="fill:#313131;fill-opacity:1;stroke:none;stroke-width:1.9064;stroke-linecap:round;stroke-linejoin:round;stroke-dasharray:none;stroke-opacity:1"
         d="m 282.72228,111.76684 c -0.46903,0 -0.79219,0.27291 -0.96842,0.48265 -0.17623,0.20975 -0.28002,0.41589 -0.37724,0.64027 -0.19444,0.44877 -0.34306,0.9822 -0.49196,1.61541 -0.2978,1.26642 -0.56808,2.90714 -0.82837,4.58422 -0.26029,1.67708 -0.50973,3.38818 -0.75396,4.74389 -0.12212,0.67786 -0.24337,1.26739 -0.35709,1.70326 -0.0968,0.37116 -0.23402,0.65757 -0.23306,0.68109 h 5.2e-4 v 5.2e-4 5.2e-4 h 5.2e-4 5.2e-4 c -0.54772,0.71137 -2.30594,1.12921 -4.10673,1.41335 -0.90648,0.14303 -1.79059,0.27316 -2.574,0.57619 -0.39171,0.15151 -0.77284,0.34987 -1.09399,0.68368 -0.32116,0.3338 -0.5432,0.83311 -0.55243,1.3379 a 0.9532953,0.9532953 0 0 0 -0.002,0.0217 c 0.004,0.77342 0.41942,1.43931 0.92191,1.90221 0.50249,0.46289 1.10909,0.80506 1.76579,1.13482 1.3134,0.65951 2.85662,1.26157 4.09949,2.06033 1.10926,0.71291 2.10019,1.69761 2.94142,2.54093 0.42062,0.42167 0.80034,0.8063 1.18132,1.12138 0.38099,0.31509 0.74553,0.64854 1.42782,0.64854 0.6823,0 1.04684,-0.33345 1.42782,-0.64854 0.38099,-0.31508 0.76122,-0.69971 1.18184,-1.12138 0.84124,-0.84332 1.83216,-1.82802 2.94142,-2.54093 1.24292,-0.7988 2.78625,-1.40082 4.0995,-2.06033 0.65662,-0.32976 1.26123,-0.67199 1.76371,-1.13482 0.50248,-0.46283 0.91954,-1.12737 0.92398,-1.90066 a 0.9532953,0.9532953 0 0 0 0,-0.0232 c -0.009,-0.50478 -0.23384,-1.00411 -0.55501,-1.3379 -0.32116,-0.33379 -0.70176,-0.53217 -1.09347,-0.68368 -0.78341,-0.30303 -1.66806,-0.43316 -2.57452,-0.57619 -1.80035,-0.28407 -3.55805,-0.70227 -4.10621,-1.41335 h 5.2e-4 l 5.1e-4,-5.2e-4 v -5.2e-4 -5.1e-4 c 9.7e-4,-0.0235 -0.13571,-0.30942 -0.23254,-0.68058 -0.11368,-0.43587 -0.23545,-1.0254 -0.35757,-1.70326 -0.24423,-1.35572 -0.49367,-3.06681 -0.75396,-4.74389 -0.26029,-1.67708 -0.53005,-3.3178 -0.82785,-4.58422 -0.14891,-0.63321 -0.29804,-1.16664 -0.49248,-1.61541 -0.0972,-0.22438 -0.20049,-0.43052 -0.37672,-0.64027 -0.17623,-0.20974 -0.49992,-0.48265 -0.96893,-0.48265 z m 0,3.2737 c 0.26558,1.14972 0.52851,2.71285 0.78134,4.34185 0.25852,1.66564 0.51033,3.38197 0.76378,4.78886 0.12673,0.70344 0.25321,1.32845 0.38861,1.84743 0.13539,0.51898 0.2163,0.89557 0.5333,1.3224 1.26172,1.69881 3.5476,1.88938 5.35161,2.17403 0.90201,0.14232 1.71494,0.2896 2.18333,0.47077 0.23419,0.0906 0.36708,0.1857 0.40618,0.22634 0.0137,0.0142 0.0192,0.0209 0.0207,0.0253 -7.06917,2.63083 -14.00188,2.65356 -20.85403,0.0305 -2.3e-4,-0.006 -4.3e-4,-0.0123 -5.2e-4,-0.0186 -7.8e-4,-0.003 -0.002,-0.006 -0.003,-0.008 v -5.2e-4 c -2e-5,-2.2e-4 0,-0.001 0,-0.002 v -5.1e-4 c 8.3e-4,-0.004 0.005,-0.0115 0.0202,-0.0269 0.0391,-0.0406 0.17199,-0.13576 0.40618,-0.22634 0.46838,-0.18117 1.2839,-0.32845 2.18592,-0.47078 1.80403,-0.28464 4.08987,-0.4752 5.35161,-2.17402 0.317,-0.42684 0.39738,-0.80343 0.53278,-1.3224 0.1354,-0.51898 0.2624,-1.14399 0.38912,-1.84744 0.25346,-1.40689 0.5032,-3.12321 0.76171,-4.78885 0.25283,-1.629 0.51526,-3.19213 0.78084,-4.34185 z" /><path
         id="path175"
         style="display:inline;fill:#000000;fill-opacity:1;stroke:none;stroke-width:0.211822;stroke-linecap:round;stroke-linejoin:round;stroke-dasharray:none;stroke-opacity:1"
         d="m 291.54901,152.62502 c -1.50409,0.041 -4.12944,4.40353 -6.45607,6.56554 -5.21062,4.8419 -11.4621,6.23637 -11.58551,4.97505 -0.12666,-1.29434 3.17219,-3.22208 3.87059,-4.04243 1.88154,-2.21012 0.75562,-6.32054 0.0273,-6.24702 -0.73254,0.074 -0.0483,2.73804 -1.61675,3.72501 -2.14436,1.34937 -2.88186,-0.97389 -4.93565,-1.3836 -2.0654,-0.41204 -3.89591,-0.004 -3.71077,0.63925 0.23463,0.81442 4.40317,0.019 3.7841,3.66479 -0.37245,2.19299 -3.65881,2.3625 -5.66248,2.2429 -3.06494,-0.18301 -8.1032,-3.62345 -8.19543,-3.60349 -0.0106,0.004 -0.0239,0.007 -0.0349,0.0124 -0.0212,0.008 -0.0411,0.0169 -0.0612,0.0273 -0.0371,0.0169 -0.0727,0.0355 -0.10612,0.0547 -0.0307,0.0169 -0.0621,0.0354 -0.0898,0.0547 -0.0191,0.0124 -0.0371,0.0271 -0.0547,0.0415 -0.002,0.003 -0.006,0.004 -0.009,0.008 -0.0148,0.0124 -0.0284,0.0237 -0.0415,0.0361 -0.008,0.008 -0.0169,0.0169 -0.0252,0.0252 -0.0106,0.011 -0.0212,0.0218 -0.0307,0.0328 -6.8e-4,7.7e-4 -0.002,0.001 -0.002,0.003 -0.0148,0.0169 -0.0294,0.0359 -0.0428,0.0547 -0.0394,0.0559 -0.0708,0.1135 -0.0941,0.1741 -1.2e-4,3.1e-4 1.1e-4,7.9e-4 0,0.001 -0.008,0.019 -0.0148,0.0398 -0.0212,0.0602 -1e-4,3.5e-4 9e-5,7.7e-4 0,10e-4 -0.036,0.12356 -0.0419,0.25655 -0.0191,0.39626 0.0148,0.0934 0.0449,0.19022 0.0854,0.29007 0.99169,2.44495 9.22726,6.71454 14.41619,8.08598 0.84716,0.22391 1.61275,0.37042 2.25273,0.41924 2.23598,0.17052 4.41942,0.11543 5.24763,0.24521 0.0928,0.0149 0.16755,0.0318 0.22438,0.0515 0.0148,0.004 0.0265,0.008 0.0383,0.0149 0.0127,0.004 0.0222,0.011 0.0318,0.0169 2.5e-4,1.4e-4 8.3e-4,-1.8e-4 0.001,0 0.004,0.003 0.009,0.007 0.0127,0.008 0.004,0.003 0.009,0.007 0.0127,0.008 0.004,0.003 0.006,0.007 0.0106,0.008 0.009,0.008 0.0127,0.0169 0.0148,0.0252 6.4e-4,0.001 6.2e-4,0.003 0.001,0.004 10e-4,0.004 0.002,0.007 0.002,0.011 3e-4,0.004 3.4e-4,0.007 0,0.011 -3.6e-4,0.004 -10e-4,0.007 -0.002,0.011 -0.002,0.007 -0.006,0.0149 -0.0106,0.0231 -1.5e-4,2.7e-4 1.7e-4,7.9e-4 0,0.001 -0.006,0.0124 -0.0169,0.024 -0.0307,0.0373 -0.13366,0.13196 -0.58425,0.3216 -1.44598,0.59875 -1.55434,0.49993 -3.95477,0.42779 -5.78947,0.36999 -1.14441,-0.0361 -2.06919,-0.0665 -2.42897,0.0515 -0.0169,0.007 -0.0352,0.0124 -0.0504,0.019 -0.0222,0.011 -0.0422,0.0212 -0.058,0.0328 -0.006,0.004 -0.0106,0.008 -0.0148,0.0124 -0.008,0.008 -0.0169,0.0169 -0.0218,0.0263 -0.004,0.007 -0.008,0.0124 -0.0106,0.0212 -10e-5,2.9e-4 1.3e-4,8e-4 0,10e-4 -0.002,0.004 -0.004,0.008 -0.004,0.0149 -5.1e-4,0.003 -8e-4,0.004 -0.001,0.008 -4e-5,3.2e-4 4e-5,7.7e-4 0,10e-4 -0.002,0.019 0.002,0.0406 0.0106,0.0635 6.6e-4,0.001 0.002,0.003 0.002,0.004 0.025,0.0563 0.0849,0.12259 0.18492,0.20144 1.4788,1.16361 7.01211,3.08136 13.59413,3.08136 13.48108,0 23.33891,-7.8669 27.59544,-14.38334 0.004,-0.007 0.006,-0.011 0.0106,-0.0169 0.61233,-0.94863 0.29297,-1.43053 -0.45866,-1.57954 -0.50607,-0.0507 -5.528,7.67833 -12.67135,7.02857 -8.50422,-0.77354 -3.68689,-11.59728 -5.35161,-12.29372 -0.0898,-0.0375 -0.18534,-0.0543 -0.2857,-0.0515 z" /><path
         style="fill:#313131;fill-opacity:1;stroke:none;stroke-width:0.211822;stroke-linecap:round;stroke-linejoin:round;stroke-dasharray:none;stroke-opacity:1"
         d="m 308.44051,154.72182 c -0.50005,-1.74579 1.5946,-5.57405 3.86599,-4.71802 1.36922,0.51604 0.54693,2.38499 -0.72316,3.08733 -1.08828,0.6017 -2.48474,1.31635 -3.14283,1.63069 z"
         id="path176"
         sodipodi:nodetypes="cssc" /><path
         style="fill:#313131;fill-opacity:1;stroke:none;stroke-width:0.211822;stroke-linecap:round;stroke-linejoin:round;stroke-dasharray:none;stroke-opacity:1"
         d="m 298.26333,132.979 c 0.5027,-2.11399 -1.29358,-3.66847 -0.12752,-5.02094 1.32264,-1.53421 3.59526,2.10601 0.12752,5.02094 z"
         id="path177"
         sodipodi:nodetypes="csc" /><path
         style="fill:#313131;fill-opacity:1;stroke:none;stroke-width:0.211822;stroke-linecap:round;stroke-linejoin:round;stroke-dasharray:none;stroke-opacity:1"
         d="m 297.60242,137.69376 c -0.58685,-0.53989 1.60041,-2.94811 3.16713,-2.94811 1.56672,0 2.87166,1.53937 0.74134,2.76281 -0.66754,0.38337 -3.44529,0.61145 -3.90836,0.18534 z"
         id="path178"
         sodipodi:nodetypes="sssss" /><path
         style="fill:#313131;fill-opacity:1;stroke:none;stroke-width:0.211822;stroke-linecap:round;stroke-linejoin:round;stroke-dasharray:none;stroke-opacity:1"
         d="m 271.82126,144.10935 c -0.87236,1.22379 -2.83494,1.1995 -3.2509,-0.0572 -0.39034,-1.17911 0.56222,-2.17984 1.3272,-2.07139 1.58776,0.22513 2.19516,1.74781 1.9237,2.12861 z"
         id="path179"
         sodipodi:nodetypes="ssss" /><path
         style="fill:#313131;fill-opacity:1;stroke:none;stroke-width:0.211822;stroke-linecap:round;stroke-linejoin:round;stroke-dasharray:none;stroke-opacity:1"
         d="m 273.34274,140.13021 c -2.31464,-1.89395 -3.58477,-2.49121 -4.32124,-2.10605 -1.26477,0.66148 -2.70895,-1.60819 -2.05935,-2.89629 0.7741,-1.53501 5.10672,-0.82329 6.38059,5.00234 z"
         id="path180"
         sodipodi:nodetypes="cssc" /><path
         style="fill:#313131;fill-opacity:1;stroke:none;stroke-width:0.211822;stroke-linecap:round;stroke-linejoin:round;stroke-dasharray:none;stroke-opacity:1"
         d="m 262.2567,152.58051 c -6.05295,-1.36831 -6.07502,-4.49009 -4.32995,-4.88088 1.7451,-0.39076 3.98154,1.53929 4.32995,4.88088 z"
         id="path181"
         sodipodi:nodetypes="csc" /><path
         style="fill:#e4e4e4;fill-opacity:1;stroke:none;stroke-width:0.211822;stroke-linecap:round;stroke-linejoin:round;stroke-dasharray:none;stroke-opacity:1"
         d="m 270.39909,123.43756 c -0.95653,2.47765 -3.23923,1.11269 -2.73247,-1.48864 0.99855,-5.12576 3.66889,-7.49547 6.97843,-7.70254 2.27857,-0.14258 2.79012,1.84812 1.207,2.67766 -2.12783,1.11498 -4.50154,4.0492 -5.45296,6.51352 z"
         id="path182"
         sodipodi:nodetypes="sssss" /><path
         style="fill:#313131;fill-opacity:1;stroke:none;stroke-width:0.200089;stroke-linecap:round;stroke-linejoin:round;stroke-dasharray:none;stroke-opacity:1"
         d="m 289.17612,166.09823 c 2.2083,-2.39629 1.66469,-2.98429 -1.60441,-1.05243 -2.10884,1.24622 -4.32331,0.75399 -4.85175,2.72842 -0.71696,2.67885 3.92069,1.07532 6.45616,-1.67599 z"
         id="path183"
         sodipodi:nodetypes="ssss" /><text
         xml:space="preserve"
         style="font-style:normal;font-variant:normal;font-weight:bold;font-stretch:normal;font-size:25.2064px;font-family:'Museo Sans Rounded';-inkscape-font-specification:'Museo Sans Rounded, Bold';font-variant-ligatures:normal;font-variant-caps:normal;font-variant-numeric:normal;font-variant-east-asian:normal;text-align:start;writing-mode:lr-tb;direction:ltr;text-anchor:start;fill:#313131;fill-opacity:1;stroke:none;stroke-width:0.483712;stroke-linecap:round;stroke-linejoin:round;stroke-dasharray:none;stroke-opacity:1"
         x="248.58601"
         y="187.09235"
         id="text183"><tspan
           sodipodi:role="line"
           id="tspan183"
           style="font-style:normal;font-variant:normal;font-weight:bold;font-stretch:normal;font-size:25.2064px;font-family:Dongle;-inkscape-font-specification:'Dongle, Bold';font-variant-ligatures:normal;font-variant-caps:normal;font-variant-numeric:normal;font-variant-east-asian:normal;fill:#313131;fill-opacity:1;stroke-width:0.483712"
           x="248.58601"
           y="187.09235">TheoToys</tspan></text></g><g
       id="g240"
       transform="matrix(1.0120281,0,0,1.0120281,0.78809301,-18.222362)"><circle
         style="fill:#ffffff;fill-opacity:1;stroke:none;stroke-width:0.406;stroke-linecap:round;stroke-linejoin:round"
         id="circle1"
         cx="28.63957"
         cy="4.6081743"
         r="4.2814531"
         transform="matrix(0.98811487,0,0,0.98811487,-0.77872641,18.005787)" /><path
         style="display:inline;fill:#e4e4e4;fill-opacity:1;stroke:none;stroke-width:0.0393407;stroke-linecap:round;stroke-linejoin:round;stroke-dasharray:none;stroke-opacity:1"
         d="m 30.669992,19.49385 c 0.769483,3.925379 -3.09895,7.215051 -7.072304,5.04775 2.184648,2.990591 4.975194,3.415574 7.181711,1.068826 1.893628,-2.561051 1.242032,-4.433487 -0.109407,-6.116576 z"
         id="path227"
         sodipodi:nodetypes="cccc" /><path
         id="path228"
         style="baseline-shift:baseline;display:inline;overflow:visible;vector-effect:none;fill:#313131;fill-opacity:1;stroke-width:0.185725;stroke-linecap:round;stroke-linejoin:round;enable-background:accumulate;stop-color:#000000"
         d="m 27.555218,18.005784 c -2.538513,0 -4.600337,2.06346 -4.600337,4.603311 0,1.753029 0.982738,3.27822 2.425993,4.055383 0.08275,0.04463 0.03545,0.168553 -0.09473,0.07707 -0.02797,-0.01967 -0.101796,-0.07047 -0.317969,-0.06037 -0.70267,0.03281 -1.058922,0.379887 -0.894308,0.976175 0.09884,0.35801 -1.183069,-0.02424 -1.375724,0.249058 -0.312442,0.443219 2.136014,1.678544 3.086886,1.751089 0.738274,0.05632 1.445685,-0.01981 0.762819,0.199822 -0.576913,0.185547 -1.782437,-0.05355 -1.519593,0.153275 0.274651,0.216107 1.302207,0.572306 2.524658,0.572306 2.50378,0 4.334684,-1.461132 5.125229,-2.671405 0.331666,-0.507762 -0.761144,-0.302738 -1.101135,0.03129 -1.023676,1.005695 -2.039991,-0.615462 -0.851598,-1.472853 0.746358,-0.538472 0.916498,0.129919 1.06505,0.05634 0.135,-0.06687 -0.01998,-0.987393 -0.792669,-0.865706 0.720179,-0.81259 1.157763,-1.881403 1.157763,-3.051471 0,-2.539851 -2.061824,-4.603311 -4.600337,-4.603311 z m 0,0.393214 c 2.325772,0 4.207121,1.882731 4.207121,4.210097 0,0.945589 -0.35577,1.840953 -0.835282,2.519955 -0.982939,1.391869 -2.37769,0.303993 -0.892868,-0.497927 0.322813,-0.174344 0.244006,-0.422549 -0.100871,-0.411066 v -9.5e-5 c -0.04927,0.0015 -0.103542,0.0097 -0.1622,0.02524 -0.851568,0.226326 -1.83835,1.714919 -2.143631,2.074049 -1.038874,1.222104 0.03604,-0.456238 -1.234352,-1.452793 -0.287687,-0.225675 -0.564126,0.02216 -0.238884,0.319793 0.483089,0.442118 0.07418,1.458077 -0.640643,1.105455 -1.292176,-0.717933 -2.165513,-2.096932 -2.165513,-3.682611 0,-2.327366 1.881349,-4.210097 4.207123,-4.210097 z"
         sodipodi:nodetypes="sssccscsccsscsscsssscsscccsccsss" /><path
         id="path229"
         style="fill:#000000;fill-opacity:0;stroke:none;stroke-width:0.354067;stroke-linecap:round;stroke-linejoin:round;stroke-dasharray:none;stroke-opacity:1"
         d="m 26.620079,23.270116 c -0.503677,-0.323705 -1.177329,-0.455492 -1.179095,-0.798562 0.0076,-0.417385 1.180512,-0.196047 1.514188,-0.645315 0.18801,-0.253149 0.358742,-2.609889 0.600109,-2.609889 0.241373,0 0.412106,2.35674 0.600112,2.609889 0.333679,0.449268 1.506526,0.22793 1.514187,0.645315 -0.002,0.34307 -0.675417,0.474857 -1.179093,0.798562 -0.454992,0.292415 -0.7689,0.772315 -0.935206,0.772315 -0.166306,0 -0.48021,-0.4799 -0.935202,-0.772315 z"
         sodipodi:nodetypes="scscscscs" /><path
         style="fill:#d7d7d7;fill-opacity:1;stroke:none;stroke-width:0.354067;stroke-linecap:round;stroke-linejoin:round;stroke-dasharray:none;stroke-opacity:1"
         d="m 27.549863,19.339126 c 0.03553,1.724556 0.457877,3.320527 -0.920626,3.444203 0.785364,0.266984 1.081067,0.88571 3.040343,-0.311781 l -1.514187,-0.64532 z"
         id="path230"
         sodipodi:nodetypes="ccccc" /><path
         id="path231"
         style="fill:#313131;fill-opacity:1;stroke:none;stroke-width:0.354067;stroke-linecap:round;stroke-linejoin:round;stroke-dasharray:none;stroke-opacity:1"
         d="m 27.555218,19.039257 c -0.08711,0 -0.14713,0.05069 -0.17986,0.08964 -0.03273,0.03896 -0.05201,0.07724 -0.07006,0.118914 -0.03611,0.08335 -0.06371,0.18242 -0.09137,0.300023 -0.05531,0.235206 -0.105507,0.53993 -0.15385,0.851407 -0.04834,0.311476 -0.09467,0.629271 -0.140029,0.881061 -0.02268,0.125896 -0.0452,0.235386 -0.06632,0.316339 -0.01798,0.06893 -0.04346,0.122127 -0.04329,0.126495 h 9.7e-5 v 9.7e-5 9.7e-5 h 9.6e-5 9.7e-5 c -0.101726,0.132119 -0.428272,0.209723 -0.762725,0.262495 -0.168356,0.02656 -0.332558,0.05073 -0.478057,0.107013 -0.07275,0.02814 -0.143536,0.06498 -0.203182,0.126977 -0.05965,0.06199 -0.100886,0.154729 -0.1026,0.248482 a 0.17705125,0.17705125 0 0 0 -3.72e-4,0.004 c 7.43e-4,0.143644 0.0779,0.267317 0.171222,0.353289 0.09333,0.08597 0.205987,0.14952 0.327953,0.210765 0.243931,0.122488 0.530547,0.234306 0.761379,0.382656 0.206018,0.132405 0.390059,0.315289 0.546297,0.471915 0.07812,0.07831 0.148644,0.149751 0.219401,0.208269 0.07076,0.05852 0.138464,0.120451 0.265183,0.120451 0.12672,0 0.194425,-0.06193 0.265183,-0.120451 0.07076,-0.05852 0.141378,-0.129954 0.219497,-0.208269 0.15624,-0.156626 0.340279,-0.33951 0.546297,-0.471915 0.230842,-0.148358 0.517478,-0.260168 0.761382,-0.382656 0.121951,-0.06124 0.234242,-0.124806 0.327566,-0.210765 0.09332,-0.08596 0.170782,-0.209381 0.171606,-0.353001 a 0.17705125,0.17705125 0 0 0 0,-0.0043 c -0.0017,-0.09375 -0.04343,-0.186489 -0.103079,-0.248482 -0.05965,-0.06199 -0.130335,-0.09884 -0.203085,-0.126977 -0.1455,-0.05628 -0.309802,-0.08045 -0.478154,-0.107013 -0.334371,-0.05276 -0.660821,-0.130429 -0.762628,-0.262495 h 9.6e-5 l 9.5e-5,-9.7e-5 v -9.6e-5 -9.5e-5 c 1.8e-4,-0.0044 -0.0252,-0.05747 -0.04319,-0.126401 -0.02111,-0.08095 -0.04373,-0.190443 -0.06641,-0.316339 -0.04536,-0.251792 -0.09169,-0.569585 -0.140029,-0.881061 -0.04834,-0.311477 -0.09844,-0.6162 -0.153753,-0.851407 -0.02766,-0.117603 -0.05535,-0.216675 -0.09147,-0.300023 -0.01805,-0.04167 -0.03724,-0.07996 -0.06997,-0.118914 -0.03273,-0.03895 -0.09285,-0.08964 -0.179955,-0.08964 z m 0,0.60801 c 0.04932,0.213532 0.09816,0.503845 0.145115,0.806392 0.04801,0.309352 0.09478,0.628118 0.141853,0.889413 0.02354,0.130647 0.04703,0.246728 0.07217,0.343115 0.02515,0.09639 0.04017,0.166331 0.09905,0.245604 0.234334,0.315512 0.65888,0.350906 0.993931,0.403773 0.167526,0.02643 0.318508,0.05379 0.4055,0.08743 0.04349,0.01683 0.06818,0.03449 0.07544,0.04204 0.0025,0.0026 0.0036,0.0039 0.0038,0.0047 -1.312925,0.488612 -2.600506,0.492833 -3.873125,0.0057 -4.3e-5,-0.0011 -8e-5,-0.0023 -9.7e-5,-0.0035 -1.44e-4,-5.58e-4 -3.71e-4,-0.0011 -5.57e-4,-0.0015 v -9.7e-5 c -3e-6,-4.1e-5 0,-1.85e-4 0,-3.71e-4 v -9.5e-5 c 1.54e-4,-7.43e-4 9.29e-4,-0.0021 0.0038,-0.005 0.0073,-0.0075 0.03194,-0.02521 0.07544,-0.04204 0.08699,-0.03365 0.238453,-0.061 0.405981,-0.08744 0.335054,-0.05286 0.759593,-0.08826 0.99393,-0.403771 0.05888,-0.07927 0.0738,-0.149217 0.09895,-0.245603 0.02515,-0.09639 0.04873,-0.212468 0.07227,-0.343117 0.04707,-0.261295 0.09346,-0.58006 0.141469,-0.889412 0.04696,-0.302546 0.0957,-0.592859 0.145022,-0.806392 z" /><path
         id="path232"
         style="display:inline;fill:#000000;fill-opacity:1;stroke:none;stroke-width:0.0393407;stroke-linecap:round;stroke-linejoin:round;stroke-dasharray:none;stroke-opacity:1"
         d="m 29.194567,26.627663 c -0.279348,0.0076 -0.766943,0.817848 -1.199057,1.219388 -0.967745,0.899265 -2.128804,1.158253 -2.151725,0.923994 -0.02352,-0.240392 0.589157,-0.598422 0.718867,-0.750782 0.34945,-0.410476 0.140338,-1.173886 0.0051,-1.160231 -0.136052,0.01374 -0.009,0.508524 -0.300272,0.691829 -0.398262,0.250613 -0.535235,-0.180876 -0.916676,-0.25697 -0.383597,-0.07653 -0.72357,-7.43e-4 -0.689185,0.118725 0.04358,0.151259 0.817781,0.0035 0.702804,0.680645 -0.06917,0.407294 -0.679534,0.438777 -1.051667,0.416564 -0.569237,-0.03399 -1.504971,-0.672967 -1.5221,-0.66926 -0.002,7.43e-4 -0.0044,0.0013 -0.0065,0.0023 -0.0039,0.0015 -0.0076,0.0031 -0.01137,0.0051 -0.0069,0.0031 -0.0135,0.0066 -0.01971,0.01016 -0.0057,0.0031 -0.01153,0.0066 -0.01668,0.01016 -0.0035,0.0023 -0.0069,0.005 -0.01016,0.0077 -3.71e-4,5.57e-4 -0.0011,7.43e-4 -0.0017,0.0015 -0.0027,0.0023 -0.0053,0.0044 -0.0077,0.0067 -0.0015,0.0015 -0.0031,0.0031 -0.0047,0.0047 -0.002,0.002 -0.0039,0.004 -0.0057,0.0061 -1.26e-4,1.43e-4 -3.71e-4,1.86e-4 -3.71e-4,5.57e-4 -0.0027,0.0031 -0.0055,0.0067 -0.0079,0.01016 -0.0073,0.01038 -0.01315,0.02108 -0.01748,0.03233 -2.3e-5,5.8e-5 2e-5,1.47e-4 0,1.86e-4 -0.0015,0.0035 -0.0027,0.0074 -0.0039,0.01118 -1.8e-5,6.5e-5 1.7e-5,1.43e-4 0,1.86e-4 -0.0067,0.02295 -0.0078,0.04765 -0.0035,0.0736 0.0027,0.01735 0.0083,0.03533 0.01586,0.05387 0.184182,0.45409 1.713737,1.247061 2.677454,1.501773 0.157339,0.04159 0.299529,0.0688 0.418389,0.07786 0.415279,0.03167 0.820799,0.02144 0.974619,0.04554 0.01724,0.0028 0.03112,0.0059 0.04167,0.0096 0.0027,7.43e-4 0.0049,0.0015 0.0071,0.0028 0.0024,7.43e-4 0.0041,0.002 0.0059,0.0031 4.6e-5,2.6e-5 1.54e-4,-3.3e-5 1.85e-4,0 7.43e-4,5.57e-4 0.0017,0.0013 0.0024,0.0015 7.43e-4,5.57e-4 0.0017,0.0013 0.0024,0.0015 7.43e-4,5.57e-4 0.0011,0.0013 0.002,0.0015 0.0017,0.0015 0.0024,0.0031 0.0027,0.0047 1.19e-4,1.85e-4 1.15e-4,5.57e-4 1.86e-4,7.43e-4 1.86e-4,7.43e-4 3.71e-4,0.0013 3.71e-4,0.002 5.6e-5,7.43e-4 6.4e-5,0.0013 0,0.002 -6.6e-5,7.43e-4 -1.85e-4,0.0013 -3.71e-4,0.002 -3.72e-4,0.0013 -0.0011,0.0028 -0.002,0.0043 -2.8e-5,5e-5 3.2e-5,1.47e-4 0,1.86e-4 -0.0011,0.0023 -0.0031,0.0045 -0.0057,0.0069 -0.02482,0.02451 -0.10851,0.05973 -0.268555,0.111203 -0.28868,0.09285 -0.734502,0.07945 -1.075252,0.06872 -0.212546,-0.0067 -0.384301,-0.01235 -0.451122,0.0096 -0.0031,0.0013 -0.0065,0.0023 -0.0094,0.0035 -0.0041,0.002 -0.0078,0.0039 -0.01077,0.0061 -0.0011,7.43e-4 -0.002,0.0015 -0.0027,0.0023 -0.0015,0.0015 -0.0031,0.0031 -0.004,0.0049 -7.43e-4,0.0013 -0.0015,0.0023 -0.002,0.0039 -1.8e-5,5.4e-5 2.5e-5,1.49e-4 0,1.86e-4 -3.71e-4,7.43e-4 -7.43e-4,0.0015 -7.43e-4,0.0028 -9.4e-5,5.57e-4 -1.48e-4,7.43e-4 -1.85e-4,0.0015 -8e-6,6e-5 7e-6,1.43e-4 0,1.86e-4 -3.72e-4,0.0035 3.71e-4,0.0075 0.002,0.01179 1.23e-4,1.86e-4 3.72e-4,5.58e-4 3.72e-4,7.43e-4 0.0046,0.01046 0.01577,0.02277 0.03434,0.03741 0.274651,0.216112 1.302328,0.572287 2.524777,0.572287 2.50378,0 4.334631,-1.461084 5.125177,-2.671353 7.43e-4,-0.0013 0.0011,-0.002 0.002,-0.0031 0.113726,-0.176185 0.05441,-0.265686 -0.08518,-0.293361 -0.09399,-0.0094 -1.026691,1.426062 -2.353393,1.305385 -1.579451,-0.143666 -0.68475,-2.153911 -0.993931,-2.283257 -0.01668,-0.007 -0.03442,-0.01009 -0.05306,-0.0096 z" /><path
         style="fill:#313131;fill-opacity:1;stroke:none;stroke-width:0.0393407;stroke-linecap:round;stroke-linejoin:round;stroke-dasharray:none;stroke-opacity:1"
         d="m 32.331749,27.017092 c -0.09287,-0.324237 0.296158,-1.035243 0.718013,-0.876256 0.254299,0.09584 0.101579,0.442953 -0.134309,0.573396 -0.202122,0.111751 -0.46148,0.244479 -0.583704,0.30286 z"
         id="path233"
         sodipodi:nodetypes="cssc" /><path
         style="fill:#313131;fill-opacity:1;stroke:none;stroke-width:0.0393407;stroke-linecap:round;stroke-linejoin:round;stroke-dasharray:none;stroke-opacity:1"
         d="m 30.441587,22.978896 c 0.09336,-0.392622 -0.240251,-0.681328 -0.02368,-0.932516 0.245648,-0.284942 0.667732,0.391139 0.02368,0.932516 z"
         id="path234"
         sodipodi:nodetypes="csc" /><path
         style="fill:#313131;fill-opacity:1;stroke:none;stroke-width:0.0393407;stroke-linecap:round;stroke-linejoin:round;stroke-dasharray:none;stroke-opacity:1"
         d="m 30.318839,23.854547 c -0.108993,-0.100271 0.297237,-0.547539 0.588217,-0.547539 0.29098,0 0.533341,0.2859 0.137686,0.513124 -0.123979,0.0712 -0.639878,0.113562 -0.725882,0.03442 z"
         id="path235"
         sodipodi:nodetypes="sssss" /><path
         style="fill:#313131;fill-opacity:1;stroke:none;stroke-width:0.0393407;stroke-linecap:round;stroke-linejoin:round;stroke-dasharray:none;stroke-opacity:1"
         d="m 25.53062,25.046086 c -0.162019,0.227289 -0.52652,0.222778 -0.603775,-0.01062 -0.0725,-0.218991 0.104419,-0.404852 0.246495,-0.38471 0.294888,0.04181 0.407697,0.324613 0.35728,0.395337 z"
         id="path236"
         sodipodi:nodetypes="ssss" /><path
         style="fill:#313131;fill-opacity:1;stroke:none;stroke-width:0.0393407;stroke-linecap:round;stroke-linejoin:round;stroke-dasharray:none;stroke-opacity:1"
         d="m 25.813198,24.307058 c -0.429888,-0.351754 -0.665783,-0.462681 -0.802564,-0.391147 -0.2349,0.122854 -0.503121,-0.298682 -0.382474,-0.537915 0.14377,-0.28509 0.948448,-0.152906 1.185038,0.929062 z"
         id="path237"
         sodipodi:nodetypes="cssc" /><path
         style="fill:#313131;fill-opacity:1;stroke:none;stroke-width:0.0393407;stroke-linecap:round;stroke-linejoin:round;stroke-dasharray:none;stroke-opacity:1"
         d="m 23.754238,26.619397 c -1.124187,-0.254131 -1.128286,-0.833925 -0.804182,-0.906504 0.324109,-0.07257 0.739473,0.285885 0.804182,0.906504 z"
         id="path238"
         sodipodi:nodetypes="csc" /><path
         style="fill:#e4e4e4;fill-opacity:1;stroke:none;stroke-width:0.0393407;stroke-linecap:round;stroke-linejoin:round;stroke-dasharray:none;stroke-opacity:1"
         d="m 25.266487,21.206808 c -0.177652,0.460162 -0.601607,0.206654 -0.507489,-0.276479 0.185456,-0.951984 0.681406,-1.3921 1.296072,-1.430558 0.423189,-0.02648 0.518197,0.343243 0.224171,0.49731 -0.395192,0.20708 -0.836051,0.752039 -1.012754,1.209727 z"
         id="path239"
         sodipodi:nodetypes="sssss" /><path
         style="fill:#313131;fill-opacity:1;stroke:none;stroke-width:0.0371616;stroke-linecap:round;stroke-linejoin:round;stroke-dasharray:none;stroke-opacity:1"
         d="m 28.75386,29.129982 c 0.410138,-0.445052 0.309176,-0.554259 -0.297979,-0.195463 -0.391666,0.231455 -0.802949,0.140035 -0.901094,0.506737 -0.133158,0.497531 0.728172,0.199714 1.199073,-0.311274 z"
         id="path240"
         sodipodi:nodetypes="ssss" /></g><g
       id="g254"
       transform="matrix(1.0097992,0,0,1.0097992,23.546684,-18.182409)"><circle
         style="fill:#ffffff;fill-opacity:1;stroke:none;stroke-width:0.406;stroke-linecap:round;stroke-linejoin:round"
         id="circle2"
         cx="51.426723"
         cy="4.6081743"
         r="4.2814531"
         transform="matrix(0.9902959,0,0,0.9902959,-23.318184,18.005965)" /><path
         style="display:inline;fill:#e4e4e4;fill-opacity:1;stroke:none;stroke-width:0.0393407;stroke-linecap:round;stroke-linejoin:round;stroke-dasharray:none;stroke-opacity:1"
         d="m 30.669992,19.49385 c 0.769483,3.925379 -3.09895,7.215051 -7.072304,5.04775 2.184648,2.990591 4.975194,3.415574 7.181711,1.068826 1.893628,-2.561051 1.242032,-4.433487 -0.109407,-6.116576 z"
         id="path241"
         sodipodi:nodetypes="cccc" /><path
         id="path242"
         style="baseline-shift:baseline;display:inline;overflow:visible;vector-effect:none;fill:#313131;fill-opacity:1;stroke-width:0.185725;stroke-linecap:round;stroke-linejoin:round;enable-background:accumulate;stop-color:#000000"
         d="m 27.555218,18.005784 c -2.538513,0 -4.600337,2.06346 -4.600337,4.603311 0,1.753029 0.982738,3.27822 2.425993,4.055383 0.08275,0.04463 0.03545,0.168553 -0.09473,0.07707 -0.02797,-0.01967 -0.101796,-0.07047 -0.317969,-0.06037 -0.70267,0.03281 -1.058922,0.379887 -0.894308,0.976175 0.09884,0.35801 -1.183069,-0.02424 -1.375724,0.249058 -0.312442,0.443219 2.136014,1.678544 3.086886,1.751089 0.738274,0.05632 1.445685,-0.01981 0.762819,0.199822 -0.576913,0.185547 -1.782437,-0.05355 -1.519593,0.153275 0.274651,0.216107 1.302207,0.572306 2.524658,0.572306 2.50378,0 4.334684,-1.461132 5.125229,-2.671405 0.331666,-0.507762 -0.761144,-0.302738 -1.101135,0.03129 -1.023676,1.005695 -2.039991,-0.615462 -0.851598,-1.472853 0.746358,-0.538472 0.916498,0.129919 1.06505,0.05634 0.135,-0.06687 -0.01998,-0.987393 -0.792669,-0.865706 0.720179,-0.81259 1.157763,-1.881403 1.157763,-3.051471 0,-2.539851 -2.061824,-4.603311 -4.600337,-4.603311 z m 0,0.393214 c 2.325772,0 4.207121,1.882731 4.207121,4.210097 0,0.945589 -0.35577,1.840953 -0.835282,2.519955 -0.982939,1.391869 -2.37769,0.303993 -0.892868,-0.497927 0.322813,-0.174344 0.244006,-0.422549 -0.100871,-0.411066 v -9.5e-5 c -0.04927,0.0015 -0.103542,0.0097 -0.1622,0.02524 -0.851568,0.226326 -1.83835,1.714919 -2.143631,2.074049 -1.038874,1.222104 0.03604,-0.456238 -1.234352,-1.452793 -0.287687,-0.225675 -0.564126,0.02216 -0.238884,0.319793 0.483089,0.442118 0.07418,1.458077 -0.640643,1.105455 -1.292176,-0.717933 -2.165513,-2.096932 -2.165513,-3.682611 0,-2.327366 1.881349,-4.210097 4.207123,-4.210097 z"
         sodipodi:nodetypes="sssccscsccsscsscsssscsscccsccsss" /><path
         id="path243"
         style="fill:#000000;fill-opacity:0;stroke:none;stroke-width:0.354067;stroke-linecap:round;stroke-linejoin:round;stroke-dasharray:none;stroke-opacity:1"
         d="m 26.620079,23.270116 c -0.503677,-0.323705 -1.177329,-0.455492 -1.179095,-0.798562 0.0076,-0.417385 1.180512,-0.196047 1.514188,-0.645315 0.18801,-0.253149 0.358742,-2.609889 0.600109,-2.609889 0.241373,0 0.412106,2.35674 0.600112,2.609889 0.333679,0.449268 1.506526,0.22793 1.514187,0.645315 -0.002,0.34307 -0.675417,0.474857 -1.179093,0.798562 -0.454992,0.292415 -0.7689,0.772315 -0.935206,0.772315 -0.166306,0 -0.48021,-0.4799 -0.935202,-0.772315 z"
         sodipodi:nodetypes="scscscscs" /><path
         style="fill:#d7d7d7;fill-opacity:1;stroke:none;stroke-width:0.354067;stroke-linecap:round;stroke-linejoin:round;stroke-dasharray:none;stroke-opacity:1"
         d="m 27.549863,19.339126 c 0.03553,1.724556 0.457877,3.320527 -0.920626,3.444203 0.785364,0.266984 1.081067,0.88571 3.040343,-0.311781 l -1.514187,-0.64532 z"
         id="path244"
         sodipodi:nodetypes="ccccc" /><path
         id="path245"
         style="fill:#313131;fill-opacity:1;stroke:none;stroke-width:0.354067;stroke-linecap:round;stroke-linejoin:round;stroke-dasharray:none;stroke-opacity:1"
         d="m 27.555218,19.039257 c -0.08711,0 -0.14713,0.05069 -0.17986,0.08964 -0.03273,0.03896 -0.05201,0.07724 -0.07006,0.118914 -0.03611,0.08335 -0.06371,0.18242 -0.09137,0.300023 -0.05531,0.235206 -0.105507,0.53993 -0.15385,0.851407 -0.04834,0.311476 -0.09467,0.629271 -0.140029,0.881061 -0.02268,0.125896 -0.0452,0.235386 -0.06632,0.316339 -0.01798,0.06893 -0.04346,0.122127 -0.04329,0.126495 h 9.7e-5 v 9.7e-5 9.7e-5 h 9.6e-5 9.7e-5 c -0.101726,0.132119 -0.428272,0.209723 -0.762725,0.262495 -0.168356,0.02656 -0.332558,0.05073 -0.478057,0.107013 -0.07275,0.02814 -0.143536,0.06498 -0.203182,0.126977 -0.05965,0.06199 -0.100886,0.154729 -0.1026,0.248482 a 0.17705125,0.17705125 0 0 0 -3.72e-4,0.004 c 7.43e-4,0.143644 0.0779,0.267317 0.171222,0.353289 0.09333,0.08597 0.205987,0.14952 0.327953,0.210765 0.243931,0.122488 0.530547,0.234306 0.761379,0.382656 0.206018,0.132405 0.390059,0.315289 0.546297,0.471915 0.07812,0.07831 0.148644,0.149751 0.219401,0.208269 0.07076,0.05852 0.138464,0.120451 0.265183,0.120451 0.12672,0 0.194425,-0.06193 0.265183,-0.120451 0.07076,-0.05852 0.141378,-0.129954 0.219497,-0.208269 0.15624,-0.156626 0.340279,-0.33951 0.546297,-0.471915 0.230842,-0.148358 0.517478,-0.260168 0.761382,-0.382656 0.121951,-0.06124 0.234242,-0.124806 0.327566,-0.210765 0.09332,-0.08596 0.170782,-0.209381 0.171606,-0.353001 a 0.17705125,0.17705125 0 0 0 0,-0.0043 c -0.0017,-0.09375 -0.04343,-0.186489 -0.103079,-0.248482 -0.05965,-0.06199 -0.130335,-0.09884 -0.203085,-0.126977 -0.1455,-0.05628 -0.309802,-0.08045 -0.478154,-0.107013 -0.334371,-0.05276 -0.660821,-0.130429 -0.762628,-0.262495 h 9.6e-5 l 9.5e-5,-9.7e-5 v -9.6e-5 -9.5e-5 c 1.8e-4,-0.0044 -0.0252,-0.05747 -0.04319,-0.126401 -0.02111,-0.08095 -0.04373,-0.190443 -0.06641,-0.316339 -0.04536,-0.251792 -0.09169,-0.569585 -0.140029,-0.881061 -0.04834,-0.311477 -0.09844,-0.6162 -0.153753,-0.851407 -0.02766,-0.117603 -0.05535,-0.216675 -0.09147,-0.300023 -0.01805,-0.04167 -0.03724,-0.07996 -0.06997,-0.118914 -0.03273,-0.03895 -0.09285,-0.08964 -0.179955,-0.08964 z m 0,0.60801 c 0.04932,0.213532 0.09816,0.503845 0.145115,0.806392 0.04801,0.309352 0.09478,0.628118 0.141853,0.889413 0.02354,0.130647 0.04703,0.246728 0.07217,0.343115 0.02515,0.09639 0.04017,0.166331 0.09905,0.245604 0.234334,0.315512 0.65888,0.350906 0.993931,0.403773 0.167526,0.02643 0.318508,0.05379 0.4055,0.08743 0.04349,0.01683 0.06818,0.03449 0.07544,0.04204 0.0025,0.0026 0.0036,0.0039 0.0038,0.0047 -1.312925,0.488612 -2.600506,0.492833 -3.873125,0.0057 -4.3e-5,-0.0011 -8e-5,-0.0023 -9.7e-5,-0.0035 -1.44e-4,-5.58e-4 -3.71e-4,-0.0011 -5.57e-4,-0.0015 v -9.7e-5 c -3e-6,-4.1e-5 0,-1.85e-4 0,-3.71e-4 v -9.5e-5 c 1.54e-4,-7.43e-4 9.29e-4,-0.0021 0.0038,-0.005 0.0073,-0.0075 0.03194,-0.02521 0.07544,-0.04204 0.08699,-0.03365 0.238453,-0.061 0.405981,-0.08744 0.335054,-0.05286 0.759593,-0.08826 0.99393,-0.403771 0.05888,-0.07927 0.0738,-0.149217 0.09895,-0.245603 0.02515,-0.09639 0.04873,-0.212468 0.07227,-0.343117 0.04707,-0.261295 0.09346,-0.58006 0.141469,-0.889412 0.04696,-0.302546 0.0957,-0.592859 0.145022,-0.806392 z" /><path
         id="path246"
         style="display:inline;fill:#000000;fill-opacity:1;stroke:none;stroke-width:0.0393407;stroke-linecap:round;stroke-linejoin:round;stroke-dasharray:none;stroke-opacity:1"
         d="m 29.194567,26.627663 c -0.279348,0.0076 -0.766943,0.817848 -1.199057,1.219388 -0.967745,0.899265 -2.128804,1.158253 -2.151725,0.923994 -0.02352,-0.240392 0.589157,-0.598422 0.718867,-0.750782 0.34945,-0.410476 0.140338,-1.173886 0.0051,-1.160231 -0.136052,0.01374 -0.009,0.508524 -0.300272,0.691829 -0.398262,0.250613 -0.535235,-0.180876 -0.916676,-0.25697 -0.383597,-0.07653 -0.72357,-7.43e-4 -0.689185,0.118725 0.04358,0.151259 0.817781,0.0035 0.702804,0.680645 -0.06917,0.407294 -0.679534,0.438777 -1.051667,0.416564 -0.569237,-0.03399 -1.504971,-0.672967 -1.5221,-0.66926 -0.002,7.43e-4 -0.0044,0.0013 -0.0065,0.0023 -0.0039,0.0015 -0.0076,0.0031 -0.01137,0.0051 -0.0069,0.0031 -0.0135,0.0066 -0.01971,0.01016 -0.0057,0.0031 -0.01153,0.0066 -0.01668,0.01016 -0.0035,0.0023 -0.0069,0.005 -0.01016,0.0077 -3.71e-4,5.57e-4 -0.0011,7.43e-4 -0.0017,0.0015 -0.0027,0.0023 -0.0053,0.0044 -0.0077,0.0067 -0.0015,0.0015 -0.0031,0.0031 -0.0047,0.0047 -0.002,0.002 -0.0039,0.004 -0.0057,0.0061 -1.26e-4,1.43e-4 -3.71e-4,1.86e-4 -3.71e-4,5.57e-4 -0.0027,0.0031 -0.0055,0.0067 -0.0079,0.01016 -0.0073,0.01038 -0.01315,0.02108 -0.01748,0.03233 -2.3e-5,5.8e-5 2e-5,1.47e-4 0,1.86e-4 -0.0015,0.0035 -0.0027,0.0074 -0.0039,0.01118 -1.8e-5,6.5e-5 1.7e-5,1.43e-4 0,1.86e-4 -0.0067,0.02295 -0.0078,0.04765 -0.0035,0.0736 0.0027,0.01735 0.0083,0.03533 0.01586,0.05387 0.184182,0.45409 1.713737,1.247061 2.677454,1.501773 0.157339,0.04159 0.299529,0.0688 0.418389,0.07786 0.415279,0.03167 0.820799,0.02144 0.974619,0.04554 0.01724,0.0028 0.03112,0.0059 0.04167,0.0096 0.0027,7.43e-4 0.0049,0.0015 0.0071,0.0028 0.0024,7.43e-4 0.0041,0.002 0.0059,0.0031 4.6e-5,2.6e-5 1.54e-4,-3.3e-5 1.85e-4,0 7.43e-4,5.57e-4 0.0017,0.0013 0.0024,0.0015 7.43e-4,5.57e-4 0.0017,0.0013 0.0024,0.0015 7.43e-4,5.57e-4 0.0011,0.0013 0.002,0.0015 0.0017,0.0015 0.0024,0.0031 0.0027,0.0047 1.19e-4,1.85e-4 1.15e-4,5.57e-4 1.86e-4,7.43e-4 1.86e-4,7.43e-4 3.71e-4,0.0013 3.71e-4,0.002 5.6e-5,7.43e-4 6.4e-5,0.0013 0,0.002 -6.6e-5,7.43e-4 -1.85e-4,0.0013 -3.71e-4,0.002 -3.72e-4,0.0013 -0.0011,0.0028 -0.002,0.0043 -2.8e-5,5e-5 3.2e-5,1.47e-4 0,1.86e-4 -0.0011,0.0023 -0.0031,0.0045 -0.0057,0.0069 -0.02482,0.02451 -0.10851,0.05973 -0.268555,0.111203 -0.28868,0.09285 -0.734502,0.07945 -1.075252,0.06872 -0.212546,-0.0067 -0.384301,-0.01235 -0.451122,0.0096 -0.0031,0.0013 -0.0065,0.0023 -0.0094,0.0035 -0.0041,0.002 -0.0078,0.0039 -0.01077,0.0061 -0.0011,7.43e-4 -0.002,0.0015 -0.0027,0.0023 -0.0015,0.0015 -0.0031,0.0031 -0.004,0.0049 -7.43e-4,0.0013 -0.0015,0.0023 -0.002,0.0039 -1.8e-5,5.4e-5 2.5e-5,1.49e-4 0,1.86e-4 -3.71e-4,7.43e-4 -7.43e-4,0.0015 -7.43e-4,0.0028 -9.4e-5,5.57e-4 -1.48e-4,7.43e-4 -1.85e-4,0.0015 -8e-6,6e-5 7e-6,1.43e-4 0,1.86e-4 -3.72e-4,0.0035 3.71e-4,0.0075 0.002,0.01179 1.23e-4,1.86e-4 3.72e-4,5.58e-4 3.72e-4,7.43e-4 0.0046,0.01046 0.01577,0.02277 0.03434,0.03741 0.274651,0.216112 1.302328,0.572287 2.524777,0.572287 2.50378,0 4.334631,-1.461084 5.125177,-2.671353 7.43e-4,-0.0013 0.0011,-0.002 0.002,-0.0031 0.113726,-0.176185 0.05441,-0.265686 -0.08518,-0.293361 -0.09399,-0.0094 -1.026691,1.426062 -2.353393,1.305385 -1.579451,-0.143666 -0.68475,-2.153911 -0.993931,-2.283257 -0.01668,-0.007 -0.03442,-0.01009 -0.05306,-0.0096 z" /><path
         style="fill:#313131;fill-opacity:1;stroke:none;stroke-width:0.0393407;stroke-linecap:round;stroke-linejoin:round;stroke-dasharray:none;stroke-opacity:1"
         d="m 32.331749,27.017092 c -0.09287,-0.324237 0.296158,-1.035243 0.718013,-0.876256 0.254299,0.09584 0.101579,0.442953 -0.134309,0.573396 -0.202122,0.111751 -0.46148,0.244479 -0.583704,0.30286 z"
         id="path247"
         sodipodi:nodetypes="cssc" /><path
         style="fill:#313131;fill-opacity:1;stroke:none;stroke-width:0.0393407;stroke-linecap:round;stroke-linejoin:round;stroke-dasharray:none;stroke-opacity:1"
         d="m 30.441587,22.978896 c 0.09336,-0.392622 -0.240251,-0.681328 -0.02368,-0.932516 0.245648,-0.284942 0.667732,0.391139 0.02368,0.932516 z"
         id="path248"
         sodipodi:nodetypes="csc" /><path
         style="fill:#313131;fill-opacity:1;stroke:none;stroke-width:0.0393407;stroke-linecap:round;stroke-linejoin:round;stroke-dasharray:none;stroke-opacity:1"
         d="m 30.318839,23.854547 c -0.108993,-0.100271 0.297237,-0.547539 0.588217,-0.547539 0.29098,0 0.533341,0.2859 0.137686,0.513124 -0.123979,0.0712 -0.639878,0.113562 -0.725882,0.03442 z"
         id="path249"
         sodipodi:nodetypes="sssss" /><path
         style="fill:#313131;fill-opacity:1;stroke:none;stroke-width:0.0393407;stroke-linecap:round;stroke-linejoin:round;stroke-dasharray:none;stroke-opacity:1"
         d="m 25.53062,25.046086 c -0.162019,0.227289 -0.52652,0.222778 -0.603775,-0.01062 -0.0725,-0.218991 0.104419,-0.404852 0.246495,-0.38471 0.294888,0.04181 0.407697,0.324613 0.35728,0.395337 z"
         id="path250"
         sodipodi:nodetypes="ssss" /><path
         style="fill:#313131;fill-opacity:1;stroke:none;stroke-width:0.0393407;stroke-linecap:round;stroke-linejoin:round;stroke-dasharray:none;stroke-opacity:1"
         d="m 25.813198,24.307058 c -0.429888,-0.351754 -0.665783,-0.462681 -0.802564,-0.391147 -0.2349,0.122854 -0.503121,-0.298682 -0.382474,-0.537915 0.14377,-0.28509 0.948448,-0.152906 1.185038,0.929062 z"
         id="path251"
         sodipodi:nodetypes="cssc" /><path
         style="fill:#313131;fill-opacity:1;stroke:none;stroke-width:0.0393407;stroke-linecap:round;stroke-linejoin:round;stroke-dasharray:none;stroke-opacity:1"
         d="m 23.754238,26.619397 c -1.124187,-0.254131 -1.128286,-0.833925 -0.804182,-0.906504 0.324109,-0.07257 0.739473,0.285885 0.804182,0.906504 z"
         id="path252"
         sodipodi:nodetypes="csc" /><path
         style="fill:#e4e4e4;fill-opacity:1;stroke:none;stroke-width:0.0393407;stroke-linecap:round;stroke-linejoin:round;stroke-dasharray:none;stroke-opacity:1"
         d="m 25.266487,21.206808 c -0.177652,0.460162 -0.601607,0.206654 -0.507489,-0.276479 0.185456,-0.951984 0.681406,-1.3921 1.296072,-1.430558 0.423189,-0.02648 0.518197,0.343243 0.224171,0.49731 -0.395192,0.20708 -0.836051,0.752039 -1.012754,1.209727 z"
         id="path253"
         sodipodi:nodetypes="sssss" /><path
         style="fill:#313131;fill-opacity:1;stroke:none;stroke-width:0.0371616;stroke-linecap:round;stroke-linejoin:round;stroke-dasharray:none;stroke-opacity:1"
         d="m 28.75386,29.129982 c 0.410138,-0.445052 0.309176,-0.554259 -0.297979,-0.195463 -0.391666,0.231455 -0.802949,0.140035 -0.901094,0.506737 -0.133158,0.497531 0.728172,0.199714 1.199073,-0.311274 z"
         id="path254"
         sodipodi:nodetypes="ssss" /><text
         xml:space="preserve"
         style="font-style:normal;font-variant:normal;font-weight:bold;font-stretch:normal;font-size:10.9206px;font-family:'Museo Sans Rounded';-inkscape-font-specification:'Museo Sans Rounded, Bold';font-variant-ligatures:normal;font-variant-caps:normal;font-variant-numeric:normal;font-variant-east-asian:normal;text-align:start;writing-mode:lr-tb;direction:ltr;text-anchor:start;fill:#313131;fill-opacity:1;stroke:none;stroke-width:0.343956;stroke-linecap:round;stroke-linejoin:round;stroke-dasharray:none;stroke-opacity:1"
         x="36.343285"
         y="27.474295"
         id="text226"><tspan
           sodipodi:role="line"
           id="tspan226"
           style="font-style:normal;font-variant:normal;font-weight:bold;font-stretch:normal;font-size:17.4677px;font-family:Dongle;-inkscape-font-specification:'Dongle, Bold';font-variant-ligatures:normal;font-variant-caps:normal;font-variant-numeric:normal;font-variant-east-asian:normal;fill:#313131;fill-opacity:1;stroke-width:0.343956"
           x="36.343285"
           y="27.474295">TheoToys</tspan></text></g></g><metadata
     id="metadata1"><rdf:RDF><cc:Work
         rdf:about=""><dc:rights><cc:Agent><dc:title>Copyright (c) 2025</dc:title></cc:Agent></dc:rights><dc:creator><cc:Agent><dc:title>Théo Marjan</dc:title></cc:Agent></dc:creator></cc:Work></rdf:RDF></metadata></svg>
